<svg xmlns="http://www.w3.org/2000/svg" xmlns:xlink="http://www.w3.org/1999/xlink" width="500" zoomAndPan="magnify" viewBox="0 0 375 374.999991" height="500" preserveAspectRatio="xMidYMid meet" version="1.0"><defs><filter x="0%" y="0%" width="100%" height="100%" id="8e66fb9432"><feColorMatrix values="0 0 0 0 1 0 0 0 0 1 0 0 0 0 1 0 0 0 1 0" color-interpolation-filters="sRGB"/></filter><g/><clipPath id="a677dc366f"><path d="M 44.425781 112.421875 L 334.675781 112.421875 L 334.675781 236.171875 L 44.425781 236.171875 Z M 44.425781 112.421875 " clip-rule="nonzero"/></clipPath><clipPath id="e5ed831619"><path d="M 40 182 L 58 182 L 58 197 L 40 197 Z M 40 182 " clip-rule="nonzero"/></clipPath><clipPath id="580c2680f7"><path d="M 46.410156 178.261719 L 60.324219 188.460938 L 51.453125 200.558594 L 37.542969 190.359375 Z M 46.410156 178.261719 " clip-rule="nonzero"/></clipPath><clipPath id="c109657ac0"><path d="M 46.410156 178.261719 L 60.324219 188.460938 L 51.453125 200.558594 L 37.542969 190.359375 Z M 46.410156 178.261719 " clip-rule="nonzero"/></clipPath><mask id="f9babe2df5"><g filter="url(#8e66fb9432)"><rect x="-37.5" width="450" fill="#000000" y="-37.499999" height="449.999989" fill-opacity="0.25"/></g></mask><clipPath id="cbd3db33ad"><path d="M 3 3 L 20 3 L 20 19 L 3 19 Z M 3 3 " clip-rule="nonzero"/></clipPath><clipPath id="f07af42662"><path d="M 8.933594 -0.144531 L 22.847656 10.054688 L 13.976562 22.152344 L 0.0664062 11.953125 Z M 8.933594 -0.144531 " clip-rule="nonzero"/></clipPath><clipPath id="9caaa5f6c9"><path d="M 8.933594 -0.144531 L 22.847656 10.054688 L 13.976562 22.152344 L 0.0664062 11.953125 Z M 8.933594 -0.144531 " clip-rule="nonzero"/></clipPath><clipPath id="c0874b011e"><rect x="0" width="23" y="0" height="22"/></clipPath><mask id="522c819301"><g filter="url(#8e66fb9432)"><rect x="-37.5" width="450" fill="#000000" y="-37.499999" height="449.999989" fill-opacity="0.25"/></g></mask><clipPath id="41b673d807"><path d="M 1 1 L 18 1 L 18 15.640625 L 1 15.640625 Z M 1 1 " clip-rule="nonzero"/></clipPath><clipPath id="6ef01be7fa"><path d="M 1.152344 0.535156 L 18.390625 1.234375 L 17.78125 16.222656 L 0.546875 15.523438 Z M 1.152344 0.535156 " clip-rule="nonzero"/></clipPath><clipPath id="05021c33e9"><path d="M 1.152344 0.535156 L 18.390625 1.234375 L 17.78125 16.222656 L 0.546875 15.523438 Z M 1.152344 0.535156 " clip-rule="nonzero"/></clipPath><clipPath id="6e24de7b19"><rect x="0" width="19" y="0" height="16"/></clipPath><mask id="b6af482d75"><g filter="url(#8e66fb9432)"><rect x="-37.5" width="450" fill="#000000" y="-37.499999" height="449.999989" fill-opacity="0.25"/></g></mask><clipPath id="7d6e2dd5a6"><path d="M 0.558594 0 L 17.839844 0 L 17.839844 15 L 0.558594 15 Z M 0.558594 0 " clip-rule="nonzero"/></clipPath><clipPath id="54e32fa109"><path d="M 0.898438 -0.140625 L 18.136719 0.554688 L 17.527344 15.542969 L 0.292969 14.847656 Z M 0.898438 -0.140625 " clip-rule="nonzero"/></clipPath><clipPath id="0bc6e6de28"><path d="M 0.898438 -0.140625 L 18.136719 0.554688 L 17.527344 15.542969 L 0.292969 14.847656 Z M 0.898438 -0.140625 " clip-rule="nonzero"/></clipPath><clipPath id="0b0d05b8cb"><rect x="0" width="18" y="0" height="16"/></clipPath><mask id="7d70955340"><g filter="url(#8e66fb9432)"><rect x="-37.5" width="450" fill="#000000" y="-37.499999" height="449.999989" fill-opacity="0.25"/></g></mask><clipPath id="d4945e85ea"><path d="M 3 3 L 20 3 L 20 19 L 3 19 Z M 3 3 " clip-rule="nonzero"/></clipPath><clipPath id="7903ccbb61"><path d="M 10.867188 22.167969 L 0.332031 8.507812 L 12.207031 -0.652344 L 22.742188 13.003906 Z M 10.867188 22.167969 " clip-rule="nonzero"/></clipPath><clipPath id="dba931251c"><path d="M 10.867188 22.167969 L 0.332031 8.507812 L 12.207031 -0.652344 L 22.742188 13.003906 Z M 10.867188 22.167969 " clip-rule="nonzero"/></clipPath><clipPath id="623452991d"><rect x="0" width="23" y="0" height="22"/></clipPath><mask id="5a5ce9f3a9"><g filter="url(#8e66fb9432)"><rect x="-37.5" width="450" fill="#000000" y="-37.499999" height="449.999989" fill-opacity="0.25"/></g></mask><clipPath id="09a3c67564"><path d="M 3 3 L 19 3 L 19 19 L 3 19 Z M 3 3 " clip-rule="nonzero"/></clipPath><clipPath id="fda5bc145f"><path d="M -0.0703125 8.023438 L 15.542969 0.691406 L 21.917969 14.269531 L 6.304688 21.601562 Z M -0.0703125 8.023438 " clip-rule="nonzero"/></clipPath><clipPath id="b3fa41658e"><path d="M -0.0703125 8.023438 L 15.542969 0.691406 L 21.917969 14.269531 L 6.304688 21.601562 Z M -0.0703125 8.023438 " clip-rule="nonzero"/></clipPath><clipPath id="f483a5749a"><rect x="0" width="22" y="0" height="22"/></clipPath><mask id="f5a4a16e99"><g filter="url(#8e66fb9432)"><rect x="-37.5" width="450" fill="#000000" y="-37.499999" height="449.999989" fill-opacity="0.25"/></g></mask><clipPath id="e8492d9cb0"><path d="M 3 3 L 19 3 L 19 19 L 3 19 Z M 3 3 " clip-rule="nonzero"/></clipPath><clipPath id="6636bcd20a"><path d="M 9.421875 22.476562 L 0.265625 7.855469 L 12.980469 -0.105469 L 22.136719 14.515625 Z M 9.421875 22.476562 " clip-rule="nonzero"/></clipPath><clipPath id="f7e419dde9"><path d="M 9.421875 22.476562 L 0.265625 7.855469 L 12.980469 -0.105469 L 22.136719 14.515625 Z M 9.421875 22.476562 " clip-rule="nonzero"/></clipPath><clipPath id="edbdb87914"><rect x="0" width="22" y="0" height="23"/></clipPath><mask id="96ec2b32bd"><g filter="url(#8e66fb9432)"><rect x="-37.5" width="450" fill="#000000" y="-37.499999" height="449.999989" fill-opacity="0.25"/></g></mask><clipPath id="8d6dbed15c"><path d="M 2 1 L 17 1 L 17 18 L 2 18 Z M 2 1 " clip-rule="nonzero"/></clipPath><clipPath id="19c31c5993"><path d="M 0.894531 17.304688 L 3.078125 0.195312 L 17.957031 2.089844 L 15.777344 19.199219 Z M 0.894531 17.304688 " clip-rule="nonzero"/></clipPath><clipPath id="23e416ae07"><path d="M 0.894531 17.304688 L 3.078125 0.195312 L 17.957031 2.089844 L 15.777344 19.199219 Z M 0.894531 17.304688 " clip-rule="nonzero"/></clipPath><clipPath id="6e91d7d864"><rect x="0" width="18" y="0" height="19"/></clipPath><mask id="008b8f2cc7"><g filter="url(#8e66fb9432)"><rect x="-37.5" width="450" fill="#000000" y="-37.499999" height="449.999989" fill-opacity="0.25"/></g></mask><clipPath id="8cfaf4b5f4"><path d="M 3 2 L 19 2 L 19 20 L 3 20 Z M 3 2 " clip-rule="nonzero"/></clipPath><clipPath id="3964f9145d"><path d="M 0.207031 14.675781 L 9.296875 0.015625 L 22.046875 7.921875 L 12.957031 22.582031 Z M 0.207031 14.675781 " clip-rule="nonzero"/></clipPath><clipPath id="925d64344c"><path d="M 0.207031 14.675781 L 9.296875 0.015625 L 22.046875 7.921875 L 12.957031 22.582031 Z M 0.207031 14.675781 " clip-rule="nonzero"/></clipPath><clipPath id="9ec2cff9e5"><rect x="0" width="22" y="0" height="23"/></clipPath><clipPath id="795796deea"><path d="M 320 178.257812 L 337 178.257812 L 337 193 L 320 193 Z M 320 178.257812 " clip-rule="nonzero"/></clipPath><clipPath id="f49ea029ce"><path d="M 286 134 L 303 134 L 303 149 L 286 149 Z M 286 134 " clip-rule="nonzero"/></clipPath><clipPath id="55a940b82f"><path d="M 284.851562 135.554688 L 301.933594 133.160156 L 304.015625 148.015625 L 286.929688 150.410156 Z M 284.851562 135.554688 " clip-rule="nonzero"/></clipPath><clipPath id="e04d88c48d"><path d="M 284.851562 135.554688 L 301.933594 133.160156 L 304.015625 148.015625 L 286.929688 150.410156 Z M 284.851562 135.554688 " clip-rule="nonzero"/></clipPath><clipPath id="51f4a93a4a"><path d="M 77 135 L 94 135 L 94 151 L 77 151 Z M 77 135 " clip-rule="nonzero"/></clipPath><clipPath id="79a3f150b7"><path d="M 87.382812 131.34375 L 96.421875 146.035156 L 83.648438 153.894531 L 74.609375 139.203125 Z M 87.382812 131.34375 " clip-rule="nonzero"/></clipPath><clipPath id="f4c5c75440"><path d="M 87.382812 131.34375 L 96.421875 146.035156 L 83.648438 153.894531 L 74.609375 139.203125 Z M 87.382812 131.34375 " clip-rule="nonzero"/></clipPath><clipPath id="1d061e742c"><path d="M 125 105 L 141 105 L 141 121 L 125 121 Z M 125 105 " clip-rule="nonzero"/></clipPath><clipPath id="2d67f8a4bf"><path d="M 137.429688 102.585938 L 142.699219 119.011719 L 128.414062 123.59375 L 123.144531 107.167969 Z M 137.429688 102.585938 " clip-rule="nonzero"/></clipPath><clipPath id="401617aa60"><path d="M 137.429688 102.585938 L 142.699219 119.011719 L 128.414062 123.59375 L 123.144531 107.167969 Z M 137.429688 102.585938 " clip-rule="nonzero"/></clipPath><clipPath id="4e9f3f56aa"><path d="M 175 94 L 190 94 L 190 111 L 175 111 Z M 175 94 " clip-rule="nonzero"/></clipPath><clipPath id="cc768f06aa"><path d="M 191.082031 95.1875 L 187.925781 112.148438 L 173.175781 109.398438 L 176.335938 92.441406 Z M 191.082031 95.1875 " clip-rule="nonzero"/></clipPath><clipPath id="ae76d89b7a"><path d="M 191.082031 95.1875 L 187.925781 112.148438 L 173.175781 109.398438 L 176.335938 92.441406 Z M 191.082031 95.1875 " clip-rule="nonzero"/></clipPath><clipPath id="5152508514"><path d="M 233 101 L 249 101 L 249 118 L 233 118 Z M 233 101 " clip-rule="nonzero"/></clipPath><clipPath id="6ebe767deb"><path d="M 229.371094 110.015625 L 242.550781 98.882812 L 252.230469 110.339844 L 239.054688 121.472656 Z M 229.371094 110.015625 " clip-rule="nonzero"/></clipPath><clipPath id="e82003e435"><path d="M 229.371094 110.015625 L 242.550781 98.882812 L 252.230469 110.339844 L 239.054688 121.472656 Z M 229.371094 110.015625 " clip-rule="nonzero"/></clipPath><clipPath id="0246832937"><path d="M 170.367188 152.746094 L 204.867188 152.746094 L 204.867188 235.996094 L 170.367188 235.996094 Z M 170.367188 152.746094 " clip-rule="nonzero"/></clipPath></defs><g clip-path="url(#a677dc366f)"><path fill="#70bf5d" d="M 168.984375 402.859375 C 168.242188 402.859375 167.441406 402.796875 166.703125 402.609375 C 163.1875 401.871094 160.351562 399.40625 158.996094 396.015625 L 153.203125 381.09375 C 152.523438 379.367188 151.226562 378.011719 149.5625 377.332031 C 147.835938 376.59375 145.988281 376.59375 144.324219 377.332031 L 125.828125 385.039062 C 122.5 386.398438 118.738281 386.027344 115.777344 384.054688 C 112.820312 382.082031 111.03125 378.75 111.03125 375.113281 L 111.09375 359.148438 C 111.09375 357.296875 110.355469 355.570312 109.058594 354.277344 C 107.765625 352.980469 105.976562 352.304688 104.1875 352.367188 L 84.214844 352.796875 C 80.636719 352.859375 77.246094 351.195312 75.210938 348.234375 C 73.179688 345.277344 72.746094 341.515625 74.042969 338.1875 L 79.898438 323.328125 C 80.578125 321.601562 80.515625 319.753906 79.773438 318.085938 C 79.035156 316.421875 77.679688 315.128906 75.953125 314.511719 L 57.148438 307.605469 C 53.757812 306.375 51.292969 303.539062 50.429688 300.085938 C 49.566406 296.570312 50.550781 292.933594 53.019531 290.28125 L 63.929688 278.570312 C 65.164062 277.210938 65.84375 275.488281 65.71875 273.636719 C 65.65625 271.789062 64.792969 270.121094 63.4375 268.890625 L 48.457031 255.636719 C 45.742188 253.230469 44.449219 249.714844 44.941406 246.140625 C 45.433594 242.566406 47.65625 239.542969 50.921875 237.941406 L 65.347656 230.976562 C 67.011719 230.171875 68.246094 228.753906 68.800781 227.027344 C 69.417969 225.304688 69.234375 223.390625 68.429688 221.789062 L 59.308594 203.972656 C 57.640625 200.765625 57.765625 197.003906 59.492188 193.859375 C 61.21875 190.714844 64.425781 188.683594 68 188.4375 L 83.96875 187.203125 C 85.816406 187.078125 87.480469 186.214844 88.652344 184.796875 C 89.824219 183.378906 90.378906 181.59375 90.195312 179.742188 L 88.160156 159.828125 C 87.789062 156.253906 89.269531 152.738281 92.042969 150.457031 C 94.816406 148.175781 98.515625 147.4375 101.96875 148.484375 L 117.257812 153.171875 C 119.046875 153.726562 120.894531 153.542969 122.5 152.617188 C 124.101562 151.753906 125.273438 150.273438 125.765625 148.484375 L 131.128906 129.25 C 132.117188 125.796875 134.707031 123.085938 138.097656 121.976562 C 141.488281 120.867188 145.25 121.542969 148.023438 123.765625 L 156.34375 130.359375 C 157.824219 131.53125 159.734375 132.023438 161.585938 131.714844 C 163.496094 131.410156 165.101562 130.359375 166.148438 128.757812 L 173.855469 117.167969 C 175.828125 114.144531 179.15625 112.421875 182.730469 112.421875 C 186.308594 112.421875 189.636719 114.207031 191.671875 117.167969 L 200.550781 130.484375 C 201.597656 132.023438 203.136719 133.074219 204.925781 133.382812 C 206.714844 133.75 208.5625 133.320312 210.042969 132.273438 L 226.320312 120.867188 C 229.277344 118.832031 233.039062 118.339844 236.367188 119.695312 C 239.699219 120.988281 242.164062 123.886719 242.902344 127.402344 L 246.292969 143 C 246.664062 144.785156 247.773438 146.328125 249.316406 147.3125 C 250.855469 148.300781 252.707031 148.609375 254.492188 148.175781 L 273.914062 143.492188 C 277.429688 142.628906 281.066406 143.617188 283.714844 146.019531 C 286.367188 148.484375 287.601562 152 287.046875 155.574219 L 284.519531 171.359375 C 284.210938 173.144531 284.640625 174.996094 285.75 176.476562 C 286.859375 177.953125 288.464844 178.878906 290.25 179.125 L 310.101562 181.839844 C 313.679688 182.332031 316.699219 184.550781 318.300781 187.757812 C 319.84375 190.964844 319.71875 194.785156 317.871094 197.867188 L 309.734375 211.617188 C 308.808594 213.21875 308.5625 215.070312 309.054688 216.855469 C 309.546875 218.644531 310.71875 220.125 312.320312 220.988281 L 329.769531 230.726562 C 332.914062 232.453125 334.949219 235.660156 335.257812 239.234375 C 335.566406 242.8125 334.023438 246.265625 331.1875 248.484375 L 318.609375 258.347656 C 317.191406 259.457031 316.269531 261.121094 316.082031 262.972656 C 315.898438 264.820312 316.390625 266.609375 317.5625 268.027344 L 330.261719 283.441406 C 332.542969 286.214844 333.285156 289.914062 332.234375 293.367188 C 331.1875 296.816406 328.535156 299.46875 325.082031 300.515625 L 309.792969 305.140625 C 308.007812 305.695312 306.589844 306.867188 305.726562 308.46875 C 304.863281 310.074219 304.738281 311.984375 305.292969 313.710938 L 311.519531 332.699219 C 312.628906 336.089844 311.953125 339.851562 309.734375 342.625 C 307.511719 345.460938 304.0625 346.941406 300.484375 346.695312 L 284.519531 345.398438 C 282.667969 345.277344 280.878906 345.832031 279.523438 347.0625 C 278.105469 348.296875 277.304688 349.960938 277.179688 351.808594 L 276.070312 371.785156 C 275.886719 375.359375 273.914062 378.566406 270.832031 380.417969 C 267.75 382.203125 263.988281 382.390625 260.71875 380.785156 L 246.355469 373.757812 C 244.691406 372.957031 242.839844 372.832031 241.117188 373.449219 C 239.390625 374.066406 238.03125 375.359375 237.230469 377.027344 L 228.910156 395.210938 C 227.429688 398.480469 224.40625 400.761719 220.832031 401.316406 C 217.257812 401.871094 213.742188 400.636719 211.277344 397.988281 L 200.425781 386.210938 C 199.191406 384.855469 197.464844 384.054688 195.617188 384.054688 C 193.765625 383.992188 192.042969 384.671875 190.683594 385.964844 L 176.382812 399.835938 C 174.347656 401.808594 171.695312 402.859375 168.984375 402.859375 Z M 146.851562 372.894531 C 148.269531 372.894531 149.6875 373.203125 151.042969 373.757812 C 153.695312 374.867188 155.789062 377.027344 156.839844 379.738281 L 162.632812 394.65625 C 163.496094 396.816406 165.222656 398.355469 167.503906 398.851562 C 169.785156 399.34375 172.003906 398.726562 173.667969 397.125 L 188.09375 383.191406 C 190.191406 381.15625 192.964844 380.109375 195.863281 380.171875 C 198.761719 380.230469 201.472656 381.464844 203.445312 383.621094 L 214.296875 395.398438 C 215.839844 397.125 218.058594 397.863281 220.339844 397.492188 C 222.621094 397.125 224.46875 395.707031 225.457031 393.609375 L 233.777344 375.421875 C 235.011719 372.773438 237.167969 370.800781 239.882812 369.8125 C 242.59375 368.824219 245.554688 369.011719 248.207031 370.246094 L 262.570312 377.273438 C 264.667969 378.257812 266.945312 378.195312 268.980469 377.027344 C 270.953125 375.855469 272.1875 373.882812 272.3125 371.539062 L 273.421875 351.5625 C 273.605469 348.667969 274.898438 346.015625 277.058594 344.105469 C 279.277344 342.191406 282.050781 341.269531 284.949219 341.515625 L 300.917969 342.808594 C 303.199219 342.996094 305.355469 342.070312 306.773438 340.21875 C 308.191406 338.433594 308.625 336.089844 307.882812 333.933594 L 301.65625 314.941406 C 300.730469 312.167969 300.976562 309.269531 302.335938 306.683594 C 303.691406 304.09375 305.972656 302.242188 308.746094 301.378906 L 324.035156 296.757812 C 326.253906 296.078125 327.917969 294.414062 328.597656 292.253906 C 329.277344 290.035156 328.78125 287.753906 327.363281 285.96875 L 314.664062 270.554688 C 312.816406 268.335938 311.953125 265.5 312.261719 262.601562 C 312.570312 259.703125 313.988281 257.113281 316.269531 255.328125 L 328.84375 245.460938 C 330.632812 244.042969 331.617188 241.886719 331.433594 239.605469 C 331.25 237.324219 330.015625 235.351562 327.980469 234.242188 L 310.535156 224.5 C 308.007812 223.082031 306.15625 220.742188 305.417969 217.964844 C 304.675781 215.128906 305.046875 212.234375 306.527344 209.707031 L 314.664062 195.957031 C 315.835938 193.984375 315.960938 191.640625 314.910156 189.546875 C 313.925781 187.449219 312.015625 186.09375 309.734375 185.785156 L 289.882812 183.070312 C 286.984375 182.703125 284.457031 181.160156 282.730469 178.816406 C 281.003906 176.476562 280.324219 173.640625 280.757812 170.742188 L 283.285156 154.960938 C 283.65625 152.679688 282.914062 150.457031 281.1875 148.917969 C 279.523438 147.375 277.242188 146.757812 274.960938 147.3125 L 255.542969 152 C 252.707031 152.679688 249.808594 152.183594 247.34375 150.644531 C 244.875 149.101562 243.210938 146.699219 242.59375 143.863281 L 239.082031 128.203125 C 238.585938 125.921875 237.046875 124.195312 234.949219 123.332031 C 232.792969 122.46875 230.511719 122.777344 228.601562 124.070312 L 212.140625 135.601562 C 209.734375 137.265625 206.898438 137.882812 204 137.328125 C 201.164062 136.773438 198.699219 135.167969 197.097656 132.765625 L 188.21875 119.449219 C 186.925781 117.535156 184.890625 116.425781 182.546875 116.425781 C 180.265625 116.425781 178.167969 117.535156 176.875 119.449219 L 169.167969 131.039062 C 167.503906 133.503906 164.851562 135.230469 161.957031 135.664062 C 158.996094 136.15625 155.976562 135.355469 153.632812 133.503906 L 145.308594 126.90625 C 143.523438 125.488281 141.179688 125.058594 139.023438 125.796875 C 136.800781 126.539062 135.199219 128.203125 134.582031 130.421875 L 129.21875 149.65625 C 128.417969 152.429688 126.628906 154.773438 124.039062 156.191406 C 121.511719 157.609375 118.554688 157.917969 115.777344 157.054688 L 100.550781 152.308594 C 98.332031 151.628906 96.050781 152.0625 94.261719 153.542969 C 92.476562 155.019531 91.613281 157.179688 91.796875 159.460938 L 93.832031 179.371094 C 94.140625 182.269531 93.277344 185.105469 91.367188 187.324219 C 89.515625 189.546875 86.863281 190.902344 83.96875 191.148438 L 68 192.382812 C 65.71875 192.566406 63.746094 193.800781 62.574219 195.832031 C 61.464844 197.867188 61.402344 200.210938 62.449219 202.246094 L 71.574219 220.0625 C 72.933594 222.652344 73.117188 225.609375 72.191406 228.324219 C 71.265625 231.097656 69.292969 233.316406 66.703125 234.550781 L 52.277344 241.515625 C 50.183594 242.503906 48.828125 244.414062 48.519531 246.695312 C 48.210938 248.976562 49.011719 251.195312 50.738281 252.675781 L 65.71875 265.929688 C 67.875 267.84375 69.171875 270.492188 69.292969 273.390625 C 69.417969 276.289062 68.429688 279.0625 66.457031 281.21875 L 55.546875 292.933594 C 54.003906 294.597656 53.386719 296.878906 53.941406 299.160156 C 54.5 301.378906 56.039062 303.167969 58.195312 303.96875 L 77.125 310.75 C 79.835938 311.738281 81.996094 313.773438 83.226562 316.421875 C 84.460938 319.074219 84.460938 322.03125 83.414062 324.746094 L 77.554688 339.605469 C 76.691406 341.761719 77 344.042969 78.296875 345.953125 C 79.589844 347.863281 81.746094 348.914062 84.027344 348.851562 L 104.003906 348.417969 C 106.902344 348.359375 109.675781 349.46875 111.710938 351.503906 C 113.804688 353.535156 114.914062 356.25 114.914062 359.148438 L 114.855469 375.113281 C 114.855469 377.394531 115.964844 379.492188 117.875 380.785156 C 119.785156 382.082031 122.128906 382.265625 124.226562 381.402344 L 142.71875 373.695312 C 144.078125 373.140625 145.496094 372.894531 146.851562 372.894531 Z M 146.851562 372.894531 " fill-opacity="1" fill-rule="nonzero"/></g><g clip-path="url(#e5ed831619)"><g clip-path="url(#580c2680f7)"><g clip-path="url(#c109657ac0)"><path fill="#70bf5d" d="M 53.722656 183.933594 C 54.527344 184.398438 55.21875 185.125 55.832031 185.929688 C 58.339844 189.242188 57.816406 192.324219 54.566406 194.898438 C 51.226562 197.542969 46.410156 196.945312 43.476562 193.804688 C 41.933594 192.15625 40.675781 190.4375 40.914062 188.019531 C 41.117188 185.9375 41.992188 184.296875 43.9375 183.347656 C 47.164062 181.769531 50.996094 181.621094 53.722656 183.933594 Z M 53.722656 183.933594 " fill-opacity="1" fill-rule="nonzero"/></g></g></g><g mask="url(#f9babe2df5)"><g transform="matrix(1, 0, 0, 1, 63, 163)"><g clip-path="url(#c0874b011e)"><g clip-path="url(#cbd3db33ad)"><g clip-path="url(#f07af42662)"><g clip-path="url(#9caaa5f6c9)"><path fill="#70bf5d" d="M 16.246094 5.527344 C 17.050781 5.992188 17.742188 6.714844 18.351562 7.523438 C 20.863281 10.835938 20.339844 13.917969 17.089844 16.488281 C 13.746094 19.132812 8.933594 18.539062 6 15.398438 C 4.457031 13.746094 3.199219 12.03125 3.433594 9.613281 C 3.640625 7.53125 4.515625 5.890625 6.460938 4.941406 C 9.6875 3.363281 13.519531 3.214844 16.246094 5.527344 Z M 16.246094 5.527344 " fill-opacity="1" fill-rule="nonzero"/></g></g></g></g></g></g><g mask="url(#522c819301)"><g transform="matrix(1, 0, 0, 1, 290, 161)"><g clip-path="url(#6e24de7b19)"><g clip-path="url(#41b673d807)"><g clip-path="url(#6ef01be7fa)"><g clip-path="url(#05021c33e9)"><path fill="#70bf5d" d="M 10.386719 1.160156 C 11.3125 1.097656 12.289062 1.3125 13.246094 1.640625 C 17.179688 2.984375 18.464844 5.835938 17.203125 9.785156 C 15.90625 13.84375 11.582031 16.039062 7.394531 15.070312 C 5.195312 14.5625 3.1875 13.839844 2.035156 11.699219 C 1.042969 9.859375 0.855469 8.011719 1.9375 6.132812 C 3.734375 3.023438 6.832031 0.765625 10.386719 1.160156 Z M 10.386719 1.160156 " fill-opacity="1" fill-rule="nonzero"/></g></g></g></g></g></g><g mask="url(#b6af482d75)"><g transform="matrix(1, 0, 0, 1, 316, 204)"><g clip-path="url(#0b0d05b8cb)"><g clip-path="url(#7d6e2dd5a6)"><g clip-path="url(#54e32fa109)"><g clip-path="url(#0bc6e6de28)"><path fill="#70bf5d" d="M 10.132812 0.484375 C 11.058594 0.417969 12.035156 0.636719 12.996094 0.964844 C 16.925781 2.308594 18.210938 5.160156 16.949219 9.109375 C 15.652344 13.167969 11.328125 15.359375 7.140625 14.394531 C 4.941406 13.882812 2.933594 13.160156 1.78125 11.023438 C 0.789062 9.179688 0.601562 7.335938 1.6875 5.457031 C 3.480469 2.347656 6.578125 0.0859375 10.132812 0.484375 Z M 10.132812 0.484375 " fill-opacity="1" fill-rule="nonzero"/></g></g></g></g></g></g><g mask="url(#7d70955340)"><g transform="matrix(1, 0, 0, 1, 42, 209)"><g clip-path="url(#623452991d)"><g clip-path="url(#d4945e85ea)"><g clip-path="url(#7903ccbb61)"><g clip-path="url(#dba931251c)"><path fill="#70bf5d" d="M 5.414062 14.6875 C 4.769531 14.019531 4.308594 13.132812 3.945312 12.1875 C 2.449219 8.308594 3.808594 5.492188 7.644531 3.921875 C 11.589844 2.308594 16.050781 4.214844 17.996094 8.046875 C 19.019531 10.0625 19.753906 12.0625 18.855469 14.320312 C 18.082031 16.261719 16.789062 17.59375 14.652344 17.96875 C 11.113281 18.589844 7.394531 17.667969 5.414062 14.6875 Z M 5.414062 14.6875 " fill-opacity="1" fill-rule="nonzero"/></g></g></g></g></g></g><g mask="url(#5a5ce9f3a9)"><g transform="matrix(1, 0, 0, 1, 248, 122)"><g clip-path="url(#f483a5749a)"><g clip-path="url(#09a3c67564)"><g clip-path="url(#fda5bc145f)"><g clip-path="url(#b3fa41658e)"><path fill="#70bf5d" d="M 8.410156 4.320312 C 9.203125 3.832031 10.167969 3.574219 11.171875 3.425781 C 15.277344 2.804688 17.734375 4.738281 18.4375 8.828125 C 19.160156 13.027344 16.332031 16.96875 12.171875 18.039062 C 9.984375 18.601562 7.871094 18.886719 5.863281 17.519531 C 4.132812 16.34375 3.113281 14.792969 3.207031 12.625 C 3.367188 9.039062 5.074219 5.605469 8.410156 4.320312 Z M 8.410156 4.320312 " fill-opacity="1" fill-rule="nonzero"/></g></g></g></g></g></g><g mask="url(#f5a4a16e99)"><g transform="matrix(1, 0, 0, 1, 105, 128)"><g clip-path="url(#edbdb87914)"><g clip-path="url(#e8492d9cb0)"><g clip-path="url(#6636bcd20a)"><g clip-path="url(#f7e419dde9)"><path fill="#70bf5d" d="M 4.726562 14.503906 C 4.148438 13.773438 3.773438 12.84375 3.503906 11.871094 C 2.398438 7.867188 4.023438 5.195312 7.996094 4.007812 C 12.078125 2.785156 16.328125 5.117188 17.894531 9.117188 C 18.714844 11.222656 19.253906 13.285156 18.136719 15.445312 C 17.179688 17.304688 15.761719 18.503906 13.597656 18.667969 C 10.015625 18.941406 6.402344 17.660156 4.726562 14.503906 Z M 4.726562 14.503906 " fill-opacity="1" fill-rule="nonzero"/></g></g></g></g></g></g><g mask="url(#96ec2b32bd)"><g transform="matrix(1, 0, 0, 1, 151, 105)"><g clip-path="url(#6e91d7d864)"><g clip-path="url(#8d6dbed15c)"><g clip-path="url(#19c31c5993)"><g clip-path="url(#23e416ae07)"><path fill="#70bf5d" d="M 2.316406 8.160156 C 2.328125 7.230469 2.628906 6.277344 3.039062 5.351562 C 4.71875 1.550781 7.667969 0.511719 11.496094 2.109375 C 15.425781 3.75 17.238281 8.25 15.914062 12.339844 C 15.21875 14.488281 14.324219 16.421875 12.09375 17.386719 C 10.175781 18.21875 8.316406 18.246094 6.542969 17.003906 C 3.597656 14.945312 1.613281 11.667969 2.316406 8.160156 Z M 2.316406 8.160156 " fill-opacity="1" fill-rule="nonzero"/></g></g></g></g></g></g><g mask="url(#008b8f2cc7)"><g transform="matrix(1, 0, 0, 1, 199, 105)"><g clip-path="url(#9ec2cff9e5)"><g clip-path="url(#8cfaf4b5f4)"><g clip-path="url(#3964f9145d)"><g clip-path="url(#925d64344c)"><path fill="#70bf5d" d="M 5.296875 6.949219 C 5.695312 6.109375 6.363281 5.363281 7.121094 4.691406 C 10.226562 1.933594 13.339844 2.214844 16.160156 5.257812 C 19.054688 8.382812 18.835938 13.226562 15.933594 16.394531 C 14.40625 18.0625 12.789062 19.453125 10.359375 19.402344 C 8.269531 19.359375 6.566406 18.617188 5.46875 16.746094 C 3.644531 13.652344 3.203125 9.84375 5.296875 6.949219 Z M 5.296875 6.949219 " fill-opacity="1" fill-rule="nonzero"/></g></g></g></g></g></g><g clip-path="url(#795796deea)"><path fill="#70bf5d" d="M 329.21875 178.511719 C 330.144531 178.410156 331.128906 178.585938 332.101562 178.875 C 336.082031 180.058594 337.484375 182.855469 336.382812 186.851562 C 335.25 190.960938 331.015625 193.328125 326.796875 192.53125 C 324.574219 192.109375 322.542969 191.46875 321.304688 189.378906 C 320.238281 187.578125 319.972656 185.742188 320.980469 183.820312 C 322.652344 180.640625 325.652344 178.257812 329.21875 178.511719 Z M 329.21875 178.511719 " fill-opacity="1" fill-rule="nonzero"/></g><g clip-path="url(#f49ea029ce)"><g clip-path="url(#55a940b82f)"><g clip-path="url(#e04d88c48d)"><path fill="#70bf5d" d="M 294.046875 134.519531 C 294.945312 134.289062 295.945312 134.328125 296.949219 134.480469 C 301.054688 135.101562 302.832031 137.675781 302.296875 141.789062 C 301.746094 146.015625 297.878906 148.945312 293.589844 148.738281 C 291.332031 148.632812 289.230469 148.28125 287.714844 146.382812 C 286.40625 144.746094 285.890625 142.964844 286.625 140.921875 C 287.835938 137.542969 290.480469 134.765625 294.046875 134.519531 Z M 294.046875 134.519531 " fill-opacity="1" fill-rule="nonzero"/></g></g></g><g clip-path="url(#51f4a93a4a)"><g clip-path="url(#79a3f150b7)"><g clip-path="url(#f4c5c75440)"><path fill="#70bf5d" d="M 92.015625 139.355469 C 92.589844 140.085938 92.953125 141.019531 93.21875 141.996094 C 94.292969 146.011719 92.648438 148.667969 88.664062 149.824219 C 84.574219 151.015625 80.339844 148.648438 78.808594 144.636719 C 78 142.523438 77.480469 140.457031 78.613281 138.308594 C 79.585938 136.457031 81.015625 135.269531 83.175781 135.121094 C 86.761719 134.875 90.363281 136.183594 92.015625 139.355469 Z M 92.015625 139.355469 " fill-opacity="1" fill-rule="nonzero"/></g></g></g><g clip-path="url(#1d061e742c)"><g clip-path="url(#2d67f8a4bf)"><g clip-path="url(#401617aa60)"><path fill="#70bf5d" d="M 140.015625 111.472656 C 140.394531 112.320312 140.527344 113.3125 140.546875 114.324219 C 140.636719 118.476562 138.402344 120.664062 134.257812 120.839844 C 130 121.015625 126.457031 117.707031 125.925781 113.441406 C 125.648438 111.199219 125.636719 109.070312 127.25 107.25 C 128.636719 105.6875 130.308594 104.875 132.441406 105.246094 C 135.980469 105.867188 139.167969 107.996094 140.015625 111.472656 Z M 140.015625 111.472656 " fill-opacity="1" fill-rule="nonzero"/></g></g></g><g clip-path="url(#4e9f3f56aa)"><g clip-path="url(#cc768f06aa)"><g clip-path="url(#ae76d89b7a)"><path fill="#70bf5d" d="M 189.140625 104.234375 C 189.074219 105.164062 188.71875 106.101562 188.257812 107 C 186.363281 110.699219 183.359375 111.5625 179.628906 109.75 C 175.796875 107.882812 174.246094 103.289062 175.804688 99.285156 C 176.625 97.179688 177.625 95.296875 179.90625 94.464844 C 181.871094 93.746094 183.726562 93.824219 185.429688 95.164062 C 188.25 97.386719 190.042969 100.777344 189.140625 104.234375 Z M 189.140625 104.234375 " fill-opacity="1" fill-rule="nonzero"/></g></g></g><g clip-path="url(#5152508514)"><g clip-path="url(#6ebe767deb)"><g clip-path="url(#e82003e435)"><path fill="#70bf5d" d="M 236.601562 104.238281 C 237.242188 103.5625 238.109375 103.0625 239.035156 102.65625 C 242.84375 100.992188 245.714844 102.222656 247.457031 105.988281 C 249.242188 109.855469 247.535156 114.394531 243.796875 116.511719 C 241.828125 117.625 239.863281 118.445312 237.566406 117.648438 C 235.59375 116.960938 234.203125 115.726562 233.734375 113.609375 C 232.957031 110.105469 233.714844 106.34375 236.601562 104.238281 Z M 236.601562 104.238281 " fill-opacity="1" fill-rule="nonzero"/></g></g></g><g clip-path="url(#0246832937)"><path fill="#262425" d="M 204.75 177.871094 C 204.65625 177.429688 204.75 177.351562 204.734375 176.957031 C 204.722656 176.5625 204.070312 175.238281 203.722656 174.828125 C 203.375 174.417969 203.074219 174.273438 203.074219 174.273438 C 203.074219 174.273438 202.816406 173.671875 202.804688 173.566406 C 202.789062 173.457031 202.835938 173.25 203.011719 172.417969 C 203.183594 171.582031 203.050781 170.628906 203.074219 170.273438 C 203.097656 169.917969 203.304688 169.40625 203.316406 169.066406 C 203.332031 168.730469 203.46875 167.5625 203.316406 167.414062 C 203.167969 167.261719 202.984375 167.347656 202.808594 167.609375 C 202.632812 167.867188 202.726562 168.191406 202.621094 168.609375 C 202.511719 169.027344 202.429688 169.695312 202.335938 169.871094 C 202.242188 170.042969 202.046875 170.019531 201.964844 169.90625 C 201.882812 169.796875 201.789062 169.671875 201.800781 169.628906 C 201.808594 169.59375 201.847656 168.679688 201.824219 168.347656 C 201.800781 168.011719 201.742188 167.289062 201.71875 167.039062 C 201.695312 166.785156 201.765625 166.214844 201.511719 166.039062 C 201.257812 165.855469 201.027344 166.039062 200.929688 166.304688 C 200.824219 166.574219 200.90625 167.078125 200.941406 167.425781 C 200.980469 167.773438 201.027344 169.152344 200.957031 169.324219 C 200.886719 169.5 200.863281 169.535156 200.792969 169.433594 C 200.71875 169.332031 200.683594 168.773438 200.59375 168.480469 C 200.503906 168.191406 200.269531 167.847656 200.15625 167.441406 C 200.042969 167.03125 199.894531 166.441406 199.703125 166.296875 C 199.515625 166.15625 199.1875 166.25 199.117188 166.585938 C 199.046875 166.925781 199.28125 167.328125 199.355469 167.613281 C 199.425781 167.894531 199.492188 168.378906 199.613281 168.785156 C 199.738281 169.195312 199.929688 169.558594 199.914062 169.734375 C 199.902344 169.90625 199.730469 169.921875 199.683594 169.921875 C 199.636719 169.921875 199.378906 169.738281 199.242188 169.542969 C 199.097656 169.34375 198.886719 169.285156 198.746094 169.214844 C 198.605469 169.144531 198.117188 169.222656 198.015625 169.332031 C 197.910156 169.441406 197.878906 169.621094 198 169.738281 C 198.117188 169.855469 198.253906 169.949219 198.253906 169.949219 C 198.253906 169.949219 198.195312 170.257812 198.207031 170.585938 C 198.222656 170.921875 198.265625 171.246094 198.277344 171.410156 C 198.292969 171.574219 198.289062 172.417969 198.382812 172.660156 C 198.476562 172.90625 199.664062 174.269531 199.839844 174.402344 C 200.011719 174.53125 200.039062 174.566406 200.050781 174.675781 C 200.066406 174.785156 200.050781 174.976562 200.042969 175.058594 C 200.03125 175.136719 200.042969 175.425781 200.074219 175.585938 C 200.109375 175.746094 200.121094 175.96875 200.121094 175.96875 C 200.121094 175.96875 199.226562 175.675781 198.972656 175.609375 C 198.71875 175.550781 198.585938 175.5625 198.410156 175.355469 C 198.238281 175.152344 197.679688 173.835938 197.433594 173.597656 C 197.191406 173.363281 196.972656 173.320312 196.414062 173.492188 C 195.851562 173.65625 194.566406 173.832031 194.304688 173.851562 C 194.046875 173.871094 193.984375 173.820312 193.984375 173.820312 C 193.984375 173.820312 194.113281 173.660156 194.027344 173.585938 C 193.941406 173.515625 193.136719 173.003906 193.011719 172.851562 C 192.882812 172.703125 192.851562 172.664062 192.851562 172.664062 L 192.625 172.324219 C 192.636719 172.324219 192.652344 172.324219 192.664062 172.324219 C 192.746094 172.355469 192.882812 172.417969 193.015625 172.445312 C 192.980469 172.515625 192.996094 172.566406 192.996094 172.597656 C 192.996094 172.605469 192.996094 172.605469 192.996094 172.609375 C 192.953125 172.613281 192.929688 172.617188 192.929688 172.617188 C 192.929688 172.617188 192.953125 172.621094 193 172.621094 C 193.003906 172.640625 193.003906 172.65625 193.003906 172.65625 C 193.003906 172.65625 193.011719 172.648438 193.015625 172.628906 C 193.023438 172.628906 193.027344 172.628906 193.039062 172.628906 C 193.070312 172.628906 193.113281 172.628906 193.160156 172.621094 C 193.207031 172.613281 193.257812 172.597656 193.3125 172.5625 C 193.359375 172.523438 193.382812 172.457031 193.386719 172.398438 C 193.390625 172.394531 193.394531 172.386719 193.402344 172.382812 C 193.425781 172.359375 193.449219 172.335938 193.46875 172.308594 C 193.496094 172.292969 193.523438 172.269531 193.53125 172.238281 C 193.539062 172.222656 193.527344 172.210938 193.519531 172.199219 C 193.523438 172.1875 193.527344 172.175781 193.53125 172.164062 C 193.59375 172.167969 193.664062 172.167969 193.746094 172.136719 C 193.800781 172.113281 193.855469 172.058594 193.878906 171.996094 C 193.894531 171.984375 193.914062 171.964844 193.933594 171.941406 C 193.953125 171.914062 193.964844 171.882812 193.972656 171.839844 C 193.980469 171.785156 193.976562 171.730469 193.964844 171.675781 C 194.046875 171.628906 194.144531 171.542969 194.222656 171.421875 C 194.304688 171.285156 194.351562 171.113281 194.375 170.945312 C 194.398438 170.773438 194.398438 170.605469 194.394531 170.464844 C 194.390625 170.417969 194.390625 170.371094 194.386719 170.328125 C 194.414062 170.300781 194.441406 170.257812 194.453125 170.207031 C 194.457031 170.257812 194.453125 170.304688 194.441406 170.34375 C 194.429688 170.417969 194.40625 170.464844 194.40625 170.464844 C 194.40625 170.464844 194.441406 170.433594 194.488281 170.363281 C 194.535156 170.296875 194.589844 170.175781 194.570312 170.023438 C 194.550781 169.878906 194.476562 169.734375 194.394531 169.613281 C 194.363281 169.558594 194.324219 169.511719 194.292969 169.464844 C 194.3125 169.425781 194.324219 169.386719 194.335938 169.363281 C 194.339844 169.359375 194.339844 169.355469 194.34375 169.34375 C 194.421875 169.414062 194.5 169.480469 194.570312 169.535156 C 194.558594 169.546875 194.554688 169.550781 194.554688 169.550781 C 194.554688 169.550781 194.558594 169.546875 194.574219 169.535156 C 194.597656 169.554688 194.621094 169.574219 194.640625 169.589844 L 194.519531 169.738281 L 194.683594 169.601562 L 194.695312 169.589844 L 194.683594 169.570312 C 194.664062 169.546875 194.640625 169.523438 194.621094 169.5 C 194.640625 169.480469 194.664062 169.460938 194.691406 169.433594 C 194.695312 169.429688 194.703125 169.425781 194.703125 169.417969 C 194.75 169.453125 194.78125 169.476562 194.78125 169.476562 C 194.78125 169.476562 194.757812 169.4375 194.726562 169.386719 C 194.738281 169.367188 194.75 169.34375 194.761719 169.320312 C 194.777344 169.316406 194.785156 169.308594 194.796875 169.296875 L 194.804688 169.292969 L 194.800781 169.277344 C 194.796875 169.265625 194.796875 169.253906 194.792969 169.242188 C 194.804688 169.167969 194.796875 169.082031 194.769531 168.996094 C 194.761719 168.984375 194.757812 168.972656 194.753906 168.960938 C 194.746094 168.851562 194.734375 168.738281 194.726562 168.632812 C 194.738281 168.617188 194.761719 168.597656 194.785156 168.5625 C 194.796875 168.546875 194.808594 168.523438 194.796875 168.492188 C 194.78125 168.464844 194.757812 168.453125 194.738281 168.445312 C 194.703125 168.421875 194.679688 168.386719 194.671875 168.34375 C 194.671875 168.328125 194.679688 168.308594 194.683594 168.289062 C 194.695312 168.238281 194.703125 168.179688 194.707031 168.128906 C 194.707031 168.125 194.707031 168.117188 194.710938 168.109375 C 194.722656 168.039062 194.726562 167.960938 194.714844 167.882812 C 194.757812 167.835938 194.804688 167.777344 194.84375 167.703125 C 194.875 167.632812 194.898438 167.539062 194.871094 167.449219 C 194.847656 167.359375 194.785156 167.285156 194.730469 167.226562 C 194.679688 167.167969 194.625 167.121094 194.574219 167.074219 C 194.570312 167.050781 194.566406 167.027344 194.554688 167 C 194.550781 166.933594 194.542969 166.871094 194.523438 166.820312 C 194.523438 166.820312 194.523438 166.820312 194.527344 166.820312 C 194.550781 166.824219 194.574219 166.832031 194.597656 166.835938 C 194.609375 166.863281 194.617188 166.894531 194.621094 166.925781 C 194.636719 167 194.640625 167.0625 194.640625 167.0625 C 194.640625 167.0625 194.671875 167.007812 194.703125 166.933594 C 194.710938 166.90625 194.722656 166.878906 194.726562 166.84375 C 194.769531 166.839844 194.796875 166.835938 194.796875 166.835938 C 194.796875 166.835938 194.773438 166.832031 194.730469 166.820312 C 194.734375 166.769531 194.730469 166.714844 194.714844 166.667969 C 194.695312 166.613281 194.65625 166.585938 194.625 166.578125 C 194.597656 166.566406 194.574219 166.574219 194.574219 166.574219 C 194.574219 166.574219 194.566406 166.589844 194.558594 166.625 C 194.558594 166.632812 194.554688 166.644531 194.554688 166.652344 C 194.554688 166.652344 194.554688 166.648438 194.550781 166.648438 C 194.480469 166.527344 194.363281 166.398438 194.273438 166.316406 C 194.269531 166.308594 194.261719 166.308594 194.257812 166.304688 C 194.273438 166.277344 194.289062 166.253906 194.296875 166.226562 C 194.347656 166.246094 194.394531 166.261719 194.4375 166.285156 C 194.523438 166.332031 194.578125 166.402344 194.59375 166.464844 C 194.613281 166.527344 194.601562 166.566406 194.609375 166.566406 C 194.609375 166.566406 194.621094 166.53125 194.621094 166.460938 C 194.621094 166.425781 194.613281 166.386719 194.589844 166.339844 C 194.566406 166.296875 194.53125 166.253906 194.488281 166.214844 C 194.441406 166.179688 194.386719 166.144531 194.328125 166.113281 C 194.339844 166.050781 194.335938 165.96875 194.3125 165.855469 C 194.304688 165.832031 194.296875 165.808594 194.289062 165.785156 C 194.324219 165.746094 194.347656 165.695312 194.359375 165.640625 C 194.410156 165.667969 194.460938 165.699219 194.5 165.734375 C 194.566406 165.792969 194.585938 165.878906 194.578125 165.933594 C 194.578125 165.996094 194.566406 166.035156 194.566406 166.035156 C 194.566406 166.035156 194.585938 166 194.601562 165.941406 C 194.613281 165.90625 194.617188 165.871094 194.613281 165.824219 C 194.609375 165.777344 194.589844 165.722656 194.558594 165.683594 C 194.507812 165.605469 194.433594 165.546875 194.359375 165.496094 C 194.351562 165.46875 194.347656 165.445312 194.34375 165.429688 C 194.328125 165.390625 194.316406 165.351562 194.292969 165.320312 C 194.339844 165.300781 194.386719 165.273438 194.414062 165.230469 C 194.472656 165.152344 194.457031 165.058594 194.421875 164.992188 C 194.394531 164.925781 194.351562 164.882812 194.316406 164.851562 C 194.238281 164.785156 194.1875 164.761719 194.1875 164.757812 C 194.1875 164.757812 194.234375 164.796875 194.296875 164.867188 C 194.324219 164.902344 194.359375 164.949219 194.375 165.011719 C 194.394531 165.066406 194.390625 165.136719 194.347656 165.179688 C 194.34375 165.183594 194.335938 165.195312 194.324219 165.199219 C 194.328125 165.136719 194.324219 165.070312 194.304688 165.011719 C 194.246094 164.808594 194.113281 164.648438 193.984375 164.539062 C 193.976562 164.53125 193.972656 164.523438 193.960938 164.519531 C 193.929688 164.453125 193.890625 164.386719 193.847656 164.328125 C 193.855469 164.308594 193.859375 164.273438 193.855469 164.222656 C 193.847656 164.148438 193.796875 164.039062 193.703125 163.957031 C 193.570312 163.84375 193.390625 163.761719 193.234375 163.6875 C 193.230469 163.667969 193.226562 163.652344 193.222656 163.632812 C 193.160156 163.238281 192.761719 162.8125 192.492188 162.671875 C 192.445312 162.644531 192.382812 162.628906 192.316406 162.621094 C 192.28125 162.59375 192.238281 162.578125 192.195312 162.554688 C 192.332031 162.542969 192.441406 162.566406 192.441406 162.566406 C 192.441406 162.566406 192.351562 162.5 192.203125 162.472656 C 192.128906 162.453125 192.042969 162.445312 191.957031 162.445312 C 191.910156 162.425781 191.863281 162.402344 191.816406 162.382812 C 191.714844 162.34375 191.613281 162.296875 191.519531 162.253906 C 191.429688 162.207031 191.339844 162.160156 191.289062 162.101562 L 191.25 162.0625 L 191.242188 162.113281 C 191.226562 162.203125 191.171875 162.265625 191.132812 162.3125 C 191.066406 162.285156 191.003906 162.253906 190.960938 162.210938 C 190.851562 162.113281 190.6875 162.066406 190.574219 162.074219 L 190.511719 162.046875 L 190.496094 162.042969 L 190.488281 162.042969 C 190.410156 162.03125 190.34375 162.042969 190.273438 162.050781 C 190.199219 162.0625 190.136719 162.078125 190.070312 162.097656 C 190.007812 162.117188 189.941406 162.136719 189.886719 162.160156 C 189.710938 162.164062 189.542969 162.160156 189.445312 162.160156 C 189.40625 162.160156 189.363281 162.15625 189.320312 162.144531 C 189.179688 162.046875 189 161.976562 188.839844 161.953125 C 188.730469 161.933594 188.632812 161.945312 188.566406 161.960938 C 188.503906 161.980469 188.472656 162.007812 188.472656 162.007812 C 188.351562 161.992188 188.226562 162 188.105469 162.046875 C 188.019531 162.078125 187.9375 162.144531 187.894531 162.226562 C 187.878906 162.261719 187.871094 162.296875 187.867188 162.332031 C 187.835938 162.308594 187.800781 162.304688 187.78125 162.289062 C 187.734375 162.261719 187.71875 162.234375 187.71875 162.234375 C 187.71875 162.234375 187.730469 162.265625 187.773438 162.304688 C 187.792969 162.324219 187.820312 162.335938 187.84375 162.359375 C 187.832031 162.371094 187.8125 162.378906 187.796875 162.390625 C 187.71875 162.3125 187.59375 162.277344 187.480469 162.28125 C 187.363281 162.285156 187.25 162.335938 187.179688 162.414062 C 187.117188 162.472656 187.09375 162.546875 187.082031 162.605469 C 187.050781 162.609375 187.023438 162.613281 186.996094 162.628906 C 186.914062 162.667969 186.859375 162.738281 186.835938 162.800781 C 186.832031 162.816406 186.828125 162.835938 186.820312 162.847656 C 186.8125 162.863281 186.800781 162.871094 186.792969 162.886719 C 186.785156 162.886719 186.777344 162.886719 186.769531 162.886719 C 186.683594 162.90625 186.625 162.960938 186.578125 163.023438 C 186.535156 163.082031 186.503906 163.160156 186.5 163.222656 C 186.496094 163.269531 186.5 163.308594 186.503906 163.347656 C 186.492188 163.371094 186.480469 163.394531 186.476562 163.410156 C 186.453125 163.429688 186.429688 163.445312 186.410156 163.464844 C 186.386719 163.46875 186.367188 163.476562 186.355469 163.492188 C 186.332031 163.519531 186.269531 163.558594 186.207031 163.585938 C 186.148438 163.613281 186.097656 163.632812 186.097656 163.632812 C 186.097656 163.632812 186.125 163.644531 186.167969 163.65625 C 186.160156 163.660156 186.15625 163.664062 186.148438 163.667969 C 186.144531 163.667969 186.144531 163.667969 186.136719 163.667969 C 186.066406 163.679688 185.984375 163.707031 185.917969 163.753906 C 185.847656 163.804688 185.792969 163.875 185.769531 163.949219 C 185.746094 164.019531 185.757812 164.085938 185.765625 164.128906 C 185.769531 164.152344 185.773438 164.171875 185.78125 164.179688 C 185.773438 164.199219 185.773438 164.21875 185.773438 164.246094 C 185.773438 164.472656 185.5 164.3125 185.335938 164.636719 C 185.289062 164.683594 185.253906 164.726562 185.253906 164.726562 C 185.253906 164.726562 185.269531 164.726562 185.304688 164.71875 C 185.300781 164.738281 185.289062 164.761719 185.285156 164.78125 C 185.253906 164.902344 185.234375 165 185.21875 165.082031 C 185.15625 165.089844 185.085938 165.128906 185.035156 165.183594 C 184.941406 165.292969 184.902344 165.429688 184.871094 165.566406 C 184.855469 165.636719 184.84375 165.710938 184.832031 165.777344 C 184.742188 165.855469 184.664062 165.953125 184.632812 166.097656 C 184.621094 166.164062 184.617188 166.210938 184.605469 166.25 C 184.550781 166.328125 184.492188 166.402344 184.441406 166.480469 C 184.355469 166.605469 184.289062 166.726562 184.257812 166.820312 C 184.226562 166.914062 184.230469 166.976562 184.230469 166.976562 C 184.230469 166.976562 184.234375 166.914062 184.28125 166.832031 C 184.328125 166.746094 184.410156 166.636719 184.507812 166.527344 C 184.53125 166.503906 184.550781 166.472656 184.574219 166.449219 C 184.570312 166.464844 184.5625 166.472656 184.554688 166.488281 C 184.523438 166.582031 184.507812 166.683594 184.496094 166.785156 C 184.460938 166.835938 184.425781 166.894531 184.394531 166.96875 C 184.355469 167.042969 184.324219 167.121094 184.277344 167.191406 L 184.273438 167.195312 C 184.242188 167.257812 184.210938 167.320312 184.175781 167.378906 C 184.160156 167.382812 184.148438 167.382812 184.148438 167.382812 C 184.148438 167.382812 184.160156 167.382812 184.171875 167.382812 C 184.136719 167.453125 184.101562 167.523438 184.070312 167.601562 C 184.039062 167.671875 184.015625 167.75 184.011719 167.824219 C 184.007812 167.90625 184.027344 167.976562 184.050781 168.035156 C 184.0625 168.0625 184.078125 168.09375 184.09375 168.121094 C 184.078125 168.140625 184.050781 168.175781 184.023438 168.21875 C 183.96875 168.296875 183.898438 168.417969 183.867188 168.582031 C 183.867188 168.59375 183.863281 168.609375 183.863281 168.628906 C 183.828125 168.746094 183.816406 168.871094 183.828125 168.996094 C 183.816406 169.003906 183.808594 169.003906 183.808594 169.003906 C 183.808594 169.003906 183.820312 169.003906 183.828125 169.003906 C 183.839844 169.097656 183.867188 169.183594 183.910156 169.265625 C 183.933594 169.308594 183.964844 169.339844 184.007812 169.367188 C 184.046875 169.390625 184.09375 169.40625 184.136719 169.40625 C 184.140625 169.40625 184.144531 169.40625 184.148438 169.40625 C 184.167969 169.511719 184.195312 169.578125 184.324219 169.707031 C 184.347656 169.730469 184.367188 169.746094 184.378906 169.761719 C 184.378906 169.796875 184.386719 169.828125 184.386719 169.855469 C 184.363281 169.890625 184.332031 169.917969 184.300781 169.941406 C 184.238281 169.988281 184.171875 170.011719 184.152344 170.019531 C 184.148438 170 184.148438 169.988281 184.148438 169.988281 C 184.148438 169.988281 184.140625 170.019531 184.144531 170.070312 C 184.144531 170.089844 184.148438 170.117188 184.164062 170.140625 C 184.136719 170.140625 184.105469 170.132812 184.082031 170.117188 C 184.046875 170.09375 184.027344 170.058594 184.011719 170.023438 C 183.992188 169.953125 184 169.90625 184 169.90625 C 184 169.90625 183.984375 169.949219 183.988281 170.03125 C 183.992188 170.066406 184.007812 170.117188 184.050781 170.160156 C 184.089844 170.199219 184.148438 170.21875 184.210938 170.222656 C 184.214844 170.230469 184.226562 170.234375 184.234375 170.246094 C 184.230469 170.246094 184.226562 170.25 184.226562 170.25 C 184.226562 170.25 184.230469 170.25 184.234375 170.25 C 184.242188 170.253906 184.253906 170.265625 184.261719 170.269531 C 184.328125 170.3125 184.414062 170.324219 184.492188 170.324219 C 184.488281 170.347656 184.480469 170.367188 184.472656 170.386719 C 184.464844 170.382812 184.457031 170.375 184.445312 170.371094 C 184.398438 170.347656 184.375 170.324219 184.375 170.324219 C 184.375 170.324219 184.390625 170.351562 184.433594 170.390625 C 184.441406 170.398438 184.449219 170.410156 184.464844 170.417969 C 184.449219 170.488281 184.460938 170.5625 184.550781 170.664062 C 184.5625 170.675781 184.574219 170.691406 184.585938 170.703125 C 184.554688 170.75 184.527344 170.808594 184.507812 170.863281 L 184.503906 170.875 C 184.496094 170.886719 184.496094 170.898438 184.496094 170.910156 C 184.484375 170.90625 184.46875 170.902344 184.457031 170.898438 C 184.410156 170.878906 184.378906 170.855469 184.378906 170.855469 C 184.378906 170.855469 184.398438 170.882812 184.441406 170.921875 C 184.457031 170.929688 184.472656 170.945312 184.492188 170.953125 C 184.492188 171.042969 184.515625 171.121094 184.539062 171.191406 C 184.574219 171.28125 184.605469 171.363281 184.617188 171.433594 C 184.628906 171.503906 184.609375 171.5625 184.582031 171.597656 C 184.554688 171.628906 184.53125 171.644531 184.53125 171.644531 C 184.53125 171.644531 184.554688 171.632812 184.59375 171.605469 C 184.628906 171.578125 184.667969 171.511719 184.667969 171.433594 C 184.667969 171.398438 184.667969 171.371094 184.664062 171.332031 C 184.6875 171.320312 184.734375 171.292969 184.789062 171.246094 C 184.789062 171.253906 184.785156 171.261719 184.785156 171.269531 C 184.769531 171.273438 184.765625 171.285156 184.769531 171.332031 C 184.742188 171.472656 184.730469 171.574219 184.71875 171.566406 C 184.722656 171.574219 184.753906 171.515625 184.789062 171.433594 C 184.855469 171.699219 185.082031 172.003906 185.082031 172.003906 C 185.082031 172.003906 182.730469 171.746094 182.414062 171.75 C 182.097656 171.761719 181.996094 171.75 181.996094 171.75 C 181.996094 171.75 181.820312 171.71875 181.710938 171.765625 C 181.597656 171.8125 181.09375 172.347656 180.933594 172.671875 C 180.773438 172.992188 180.816406 173.03125 180.691406 173.101562 C 180.5625 173.171875 180.257812 173.378906 180.121094 173.3125 C 179.984375 173.25 179.738281 173.128906 179.597656 173.128906 C 179.453125 173.128906 179.191406 172.820312 178.574219 172.597656 C 177.957031 172.378906 177.621094 172.332031 177.367188 172.191406 C 177.113281 172.050781 176.75 171.796875 176.636719 171.765625 C 176.527344 171.730469 176.335938 171.71875 176.335938 171.71875 C 176.335938 171.71875 175.589844 170.03125 175.382812 169.589844 C 175.175781 169.148438 175.101562 169.101562 175.195312 168.910156 C 175.289062 168.722656 175.414062 168.609375 175.253906 168.261719 C 175.09375 167.914062 175.242188 166.175781 175.199219 165.921875 C 175.160156 165.667969 175.238281 165.542969 175.109375 165.496094 C 174.980469 165.445312 174.878906 165.390625 174.878906 165.390625 C 174.878906 165.390625 175.132812 164.289062 175.113281 164.140625 C 175.101562 163.988281 174.988281 163.917969 174.988281 163.917969 C 174.988281 163.917969 174.875 163.210938 174.972656 162.75 C 175.070312 162.289062 175.414062 161.109375 175.480469 160.558594 C 175.546875 160.007812 175.175781 159.171875 175.078125 158.730469 C 174.980469 158.289062 174.941406 158.265625 174.980469 158.140625 C 175.019531 158.011719 175.125 157.832031 175.089844 157.761719 C 175.058594 157.691406 182.378906 153.171875 182.386719 153.117188 C 182.394531 153.0625 182.347656 152.976562 182.300781 152.960938 C 182.253906 152.949219 174.746094 157.492188 174.746094 157.492188 C 174.746094 157.492188 174.410156 157.273438 174.257812 157.261719 C 174.097656 157.253906 173.929688 157.300781 173.929688 157.300781 C 173.929688 157.300781 173.96875 156.1875 173.882812 155.945312 C 173.800781 155.703125 173.417969 155.65625 173.289062 155.75 C 173.164062 155.84375 173.152344 156.152344 173.128906 156.570312 C 173.105469 156.988281 173.121094 157.472656 173.121094 157.832031 C 173.121094 158.1875 173.152344 158.59375 173.105469 158.539062 C 173.058594 158.484375 172.980469 157.914062 172.921875 157.585938 C 172.867188 157.253906 172.886719 156.363281 172.691406 156.195312 C 172.503906 156.019531 172.261719 156.007812 172.144531 156.296875 C 172.027344 156.585938 172.183594 157.964844 172.195312 158.261719 C 172.210938 158.5625 172.421875 159.167969 172.355469 159.316406 C 172.292969 159.46875 172.140625 159.515625 172.117188 159.503906 C 172.09375 159.492188 171.941406 159.367188 171.804688 159.097656 C 171.664062 158.824219 171.394531 157.941406 171.152344 157.699219 C 170.910156 157.457031 170.773438 157.488281 170.644531 157.589844 C 170.519531 157.695312 170.550781 157.925781 170.636719 158.21875 C 170.722656 158.511719 170.8125 158.601562 170.828125 158.652344 C 170.847656 158.707031 170.882812 158.964844 171.03125 159.21875 C 171.183594 159.472656 171.207031 159.714844 171.316406 160.054688 C 171.425781 160.390625 171.476562 161.386719 171.640625 162.019531 C 171.804688 162.648438 172.058594 162.773438 172.105469 162.957031 C 172.15625 163.140625 172.292969 164.265625 172.128906 164.28125 C 171.96875 164.292969 171.816406 164.390625 171.734375 164.625 C 171.65625 164.859375 171.609375 165.207031 171.558594 165.382812 C 171.511719 165.554688 171.480469 165.789062 171.398438 165.871094 C 171.320312 165.949219 171.085938 166.214844 170.941406 166.308594 C 170.800781 166.402344 170.371094 166.71875 170.46875 167.285156 C 170.5625 167.851562 170.972656 168.132812 171.132812 168.957031 C 171.292969 169.777344 171.386719 172.546875 171.828125 173.496094 C 172.273438 174.441406 173.003906 174.757812 173.480469 175.164062 C 173.953125 175.574219 173.640625 175.605469 174.492188 176.171875 C 175.34375 176.742188 177.992188 178.035156 178.820312 178.269531 C 179.644531 178.503906 180.976562 178.992188 180.976562 178.992188 C 181.292969 179.117188 179.976562 184.699219 179.757812 185.648438 C 179.535156 186.59375 179.328125 187.050781 179.199219 187.351562 C 179.074219 187.648438 178.757812 188.625 178.628906 188.894531 C 178.503906 189.160156 178.488281 189.332031 178.488281 189.332031 L 178.628906 189.472656 C 178.628906 189.472656 176.539062 197.671875 176.347656 198.113281 C 176.160156 198.554688 175.90625 198.867188 175.96875 199.0625 C 176.027344 199.25 177.839844 201.03125 178.785156 201.691406 C 179.738281 202.351562 181.101562 202.511719 181.195312 202.351562 C 181.230469 202.292969 181.425781 202.15625 181.652344 202.007812 C 181.953125 204.421875 182.253906 206.710938 182.242188 206.972656 C 182.210938 207.503906 182.503906 208.695312 182.800781 209.914062 C 182.933594 210.472656 182.949219 211.320312 182.929688 212.160156 C 182.75 213.609375 182.609375 214.96875 182.632812 215.535156 C 182.691406 216.984375 183.203125 218.976562 183.167969 220.390625 C 183.136719 221.8125 183.550781 225.339844 183.328125 226.035156 C 183.109375 226.726562 182.691406 229.785156 182.839844 230.085938 C 182.984375 230.386719 183.5 230.597656 183.6875 230.617188 C 183.871094 230.632812 183.589844 231.042969 183.300781 232.019531 C 183.019531 232.417969 182.632812 232.824219 182.273438 233.175781 C 181.683594 233.753906 181.226562 233.894531 180.859375 234.316406 C 180.492188 234.738281 180.609375 234.976562 180.609375 234.976562 C 180.609375 234.976562 180.492188 235.226562 180.519531 235.4375 C 180.546875 235.648438 180.796875 235.628906 181.582031 235.71875 C 182.363281 235.808594 184.101562 235.664062 184.675781 235.488281 C 185.253906 235.308594 185.667969 234.769531 185.757812 234.71875 C 185.847656 234.667969 186.464844 234.898438 186.582031 234.898438 C 186.699219 234.898438 188.203125 234.316406 188.203125 234.316406 C 188.203125 234.316406 188.246094 233.578125 188.246094 233.476562 C 188.246094 233.367188 188.335938 233.234375 188.335938 232.6875 C 188.335938 232.148438 188.214844 231.253906 188.214844 231.253906 C 188.214844 231.253906 188.292969 231.113281 188.292969 230.761719 C 188.292969 230.410156 188.175781 229.066406 188.265625 228.378906 C 188.335938 227.839844 188.222656 227.578125 188.015625 226.886719 C 188.039062 226.707031 187.984375 226.484375 187.835938 226.230469 C 187.808594 226.109375 187.777344 225.972656 187.757812 225.816406 C 187.820312 225.4375 188.144531 224.972656 188.167969 224.195312 C 188.203125 223.121094 187.820312 221.792969 187.980469 221.070312 C 188.140625 220.347656 188.074219 219.308594 188.265625 217.855469 C 188.453125 216.40625 188.25 213.15625 188.289062 212.816406 C 188.316406 212.554688 188.265625 210.011719 188.296875 208.46875 C 188.328125 209.78125 188.363281 210.824219 188.390625 211.085938 C 188.484375 211.953125 188.34375 213.757812 188.402344 214.304688 C 188.457031 214.847656 188.726562 220.082031 188.550781 220.835938 C 188.375 221.59375 188.585938 223.453125 188.550781 224.449219 C 188.519531 225.441406 188.601562 225.738281 188.796875 226.375 C 188.507812 227.464844 188.324219 227.710938 188.410156 228.363281 C 188.5 229.054688 188.382812 230.394531 188.382812 230.746094 C 188.382812 231.097656 188.457031 231.238281 188.457031 231.238281 C 188.457031 231.238281 188.339844 232.128906 188.339844 232.675781 C 188.339844 233.222656 188.429688 233.355469 188.429688 233.460938 C 188.429688 233.566406 188.472656 234.300781 188.472656 234.300781 C 188.472656 234.300781 189.976562 234.882812 190.09375 234.882812 C 190.210938 234.882812 190.828125 234.652344 190.917969 234.707031 C 191.007812 234.757812 191.421875 235.296875 191.996094 235.472656 C 192.570312 235.648438 194.3125 235.792969 195.09375 235.703125 C 195.875 235.613281 196.125 235.632812 196.152344 235.421875 C 196.183594 235.210938 196.0625 234.964844 196.0625 234.964844 C 196.0625 234.964844 196.183594 234.71875 195.8125 234.300781 C 195.445312 233.878906 194.988281 233.738281 194.398438 233.164062 C 194.125 232.894531 193.835938 232.59375 193.589844 232.289062 C 193.765625 231.910156 192.910156 229.992188 192.910156 229.769531 C 192.910156 229.550781 193.421875 229.425781 193.226562 228.449219 C 193.039062 227.472656 193.355469 226.019531 193.386719 224.757812 C 193.421875 223.496094 193.546875 221.699219 193.640625 220.125 C 193.679688 219.496094 193.667969 217.503906 193.65625 215.3125 C 193.722656 215.105469 193.773438 214.878906 193.800781 214.582031 C 193.878906 213.757812 193.582031 211.117188 193.878906 209.894531 C 194.175781 208.671875 194.464844 207.480469 194.4375 206.953125 C 194.425781 206.675781 194.75 204.207031 195.066406 201.679688 C 195.59375 201.695312 195.910156 201.714844 195.921875 201.734375 C 196.015625 201.859375 197.191406 202.175781 197.472656 202.363281 C 197.761719 202.550781 199.753906 200.535156 199.753906 200.535156 C 199.753906 200.535156 198.535156 192.84375 198.34375 192.035156 C 198.15625 191.234375 197.964844 191.058594 198.089844 190.945312 C 198.21875 190.835938 198.277344 190.695312 198.230469 190.507812 C 198.183594 190.320312 197.871094 189.386719 197.804688 189.183594 C 197.742188 188.976562 197.722656 188.882812 197.722656 188.882812 C 197.722656 188.882812 197.234375 184.375 196.789062 182.769531 C 196.347656 181.160156 196.378906 180.730469 196.535156 180.511719 C 196.695312 180.292969 199.273438 180.917969 200.304688 180.890625 C 201.332031 180.859375 201.761719 180.730469 202.398438 180.484375 C 203.03125 180.230469 203.761719 179.949219 204.316406 179.441406 C 204.878906 179.039062 204.84375 178.3125 204.75 177.871094 Z M 199.332031 171.464844 C 199.296875 171.519531 199.242188 171.425781 199.210938 171.257812 C 199.179688 171.09375 199.105469 170.714844 199.105469 170.714844 C 199.105469 170.714844 199.253906 170.921875 199.324219 171.039062 C 199.324219 171.039062 199.34375 171.15625 199.363281 171.226562 C 199.382812 171.304688 199.363281 171.410156 199.332031 171.464844 Z M 193.582031 164.015625 C 193.59375 164.027344 193.609375 164.035156 193.621094 164.050781 C 193.667969 164.09375 193.691406 164.144531 193.710938 164.195312 C 193.574219 164.058594 193.433594 164.007812 193.4375 164.007812 C 193.4375 164.007812 193.5625 164.097656 193.65625 164.257812 C 193.667969 164.273438 193.679688 164.296875 193.691406 164.316406 C 193.59375 164.21875 193.449219 164.09375 193.34375 163.9375 C 193.371094 163.941406 193.402344 163.949219 193.429688 163.957031 C 193.480469 163.972656 193.53125 163.996094 193.582031 164.015625 Z M 194.753906 169.273438 C 194.753906 169.273438 194.753906 169.277344 194.753906 169.277344 C 194.75 169.300781 194.746094 169.320312 194.738281 169.339844 C 194.726562 169.339844 194.707031 169.324219 194.691406 169.324219 C 194.691406 169.324219 194.6875 169.324219 194.6875 169.324219 C 194.632812 169.226562 194.570312 169.105469 194.519531 169.019531 C 194.480469 168.960938 194.4375 168.925781 194.40625 168.902344 C 194.375 168.847656 194.359375 168.796875 194.382812 168.75 C 194.390625 168.730469 194.398438 168.714844 194.410156 168.703125 C 194.5 168.796875 194.589844 168.886719 194.65625 168.980469 C 194.683594 169.085938 194.714844 169.191406 194.753906 169.273438 Z M 194.09375 171.515625 C 194.09375 171.511719 194.09375 171.511719 194.09375 171.507812 C 194.097656 171.511719 194.097656 171.511719 194.09375 171.515625 Z M 193.957031 170.859375 C 193.960938 170.90625 193.964844 170.957031 193.972656 171.007812 C 193.953125 170.976562 193.933594 170.945312 193.914062 170.914062 C 193.914062 170.910156 193.910156 170.910156 193.910156 170.90625 C 193.925781 170.882812 193.9375 170.867188 193.957031 170.859375 Z M 193.863281 171.117188 C 193.882812 171.140625 193.90625 171.167969 193.925781 171.191406 C 193.917969 171.195312 193.914062 171.203125 193.90625 171.207031 C 193.902344 171.210938 193.894531 171.214844 193.886719 171.222656 C 193.882812 171.1875 193.871094 171.148438 193.863281 171.117188 Z M 193.914062 171.34375 C 193.910156 171.316406 193.90625 171.285156 193.902344 171.261719 C 193.910156 171.261719 193.917969 171.257812 193.933594 171.253906 C 193.941406 171.25 193.957031 171.25 193.964844 171.246094 C 193.964844 171.246094 193.964844 171.25 193.972656 171.25 C 193.964844 171.292969 193.960938 171.328125 193.953125 171.363281 C 193.949219 171.378906 193.9375 171.398438 193.929688 171.417969 C 193.925781 171.394531 193.917969 171.367188 193.914062 171.34375 Z M 194.15625 165.410156 C 194.136719 165.394531 194.117188 165.386719 194.097656 165.371094 C 194.121094 165.375 194.140625 165.375 194.164062 165.375 C 194.167969 165.375 194.167969 165.375 194.175781 165.375 C 194.175781 165.375 194.175781 165.382812 194.175781 165.382812 C 194.167969 165.394531 194.164062 165.40625 194.15625 165.410156 Z M 193.960938 165.183594 C 193.949219 165.175781 193.929688 165.164062 193.914062 165.152344 C 193.917969 165.128906 193.925781 165.109375 193.929688 165.085938 C 193.976562 165.117188 194.039062 165.164062 194.085938 165.234375 C 194.089844 165.242188 194.09375 165.246094 194.09375 165.25 C 194.050781 165.234375 194.007812 165.210938 193.960938 165.183594 Z M 193.265625 172.515625 C 193.242188 172.546875 193.199219 172.570312 193.160156 172.585938 C 193.121094 172.597656 193.082031 172.609375 193.050781 172.617188 C 193.046875 172.617188 193.042969 172.617188 193.039062 172.621094 C 193.046875 172.589844 193.066406 172.542969 193.105469 172.515625 C 193.121094 172.496094 193.152344 172.496094 193.1875 172.488281 C 193.179688 172.511719 193.175781 172.523438 193.175781 172.523438 C 193.175781 172.523438 193.207031 172.511719 193.25 172.480469 C 193.265625 172.480469 193.273438 172.476562 193.289062 172.472656 C 193.292969 172.472656 193.292969 172.472656 193.296875 172.46875 C 193.285156 172.480469 193.277344 172.5 193.265625 172.515625 Z M 193.71875 172.074219 C 193.667969 172.105469 193.609375 172.121094 193.554688 172.128906 C 193.582031 172.019531 193.582031 171.910156 193.570312 171.820312 C 193.628906 171.792969 193.6875 171.765625 193.734375 171.703125 C 193.734375 171.777344 193.703125 171.84375 193.664062 171.890625 C 193.621094 171.9375 193.585938 171.957031 193.589844 171.957031 C 193.589844 171.957031 193.628906 171.957031 193.691406 171.933594 C 193.722656 171.925781 193.753906 171.90625 193.789062 171.878906 C 193.796875 171.957031 193.78125 172.03125 193.71875 172.074219 Z M 193.976562 171.652344 C 193.972656 171.636719 193.972656 171.628906 193.964844 171.613281 C 193.957031 171.578125 193.949219 171.539062 193.933594 171.503906 C 193.964844 171.472656 194 171.433594 194.019531 171.390625 C 194.023438 171.375 194.027344 171.363281 194.039062 171.347656 C 194.042969 171.355469 194.046875 171.363281 194.050781 171.371094 C 194.054688 171.378906 194.054688 171.386719 194.0625 171.394531 C 194.0625 171.460938 194.066406 171.511719 194.066406 171.550781 C 194.042969 171.589844 194.007812 171.625 193.976562 171.652344 Z M 194.164062 171.398438 C 194.160156 171.414062 194.152344 171.425781 194.144531 171.4375 C 194.144531 171.410156 194.144531 171.375 194.136719 171.34375 C 194.140625 171.320312 194.144531 171.300781 194.15625 171.277344 C 194.167969 171.214844 194.191406 171.148438 194.207031 171.078125 C 194.226562 171.054688 194.238281 171.03125 194.253906 171.003906 C 194.238281 171.144531 194.214844 171.28125 194.164062 171.398438 Z M 194.363281 170.109375 C 194.375 170.140625 194.386719 170.175781 194.386719 170.207031 C 194.386719 170.210938 194.386719 170.222656 194.382812 170.230469 C 194.375 170.183594 194.367188 170.148438 194.363281 170.109375 Z M 194.6875 169.449219 C 194.667969 169.476562 194.644531 169.503906 194.632812 169.523438 C 194.570312 169.453125 194.503906 169.378906 194.4375 169.292969 C 194.453125 169.273438 194.472656 169.25 194.480469 169.226562 C 194.527344 169.285156 194.585938 169.335938 194.636719 169.382812 C 194.660156 169.402344 194.683594 169.417969 194.703125 169.433594 C 194.691406 169.4375 194.691406 169.441406 194.6875 169.449219 Z M 194.695312 169.339844 C 194.707031 169.34375 194.714844 169.355469 194.730469 169.359375 C 194.726562 169.367188 194.726562 169.371094 194.722656 169.382812 C 194.714844 169.367188 194.707031 169.355469 194.695312 169.339844 Z M 194.503906 168.605469 C 194.519531 168.589844 194.535156 168.570312 194.558594 168.546875 C 194.574219 168.597656 194.585938 168.65625 194.597656 168.714844 C 194.566406 168.679688 194.53125 168.640625 194.503906 168.605469 Z M 194.726562 168.515625 C 194.75 168.523438 194.769531 168.535156 194.777344 168.542969 C 194.785156 168.546875 194.78125 168.566406 194.777344 168.585938 C 194.761719 168.621094 194.746094 168.644531 194.734375 168.660156 C 194.730469 168.609375 194.722656 168.558594 194.710938 168.511719 C 194.714844 168.511719 194.722656 168.515625 194.726562 168.515625 Z M 194.773438 167.515625 C 194.796875 167.570312 194.796875 167.640625 194.777344 167.703125 C 194.757812 167.753906 194.734375 167.800781 194.710938 167.84375 C 194.6875 167.792969 194.664062 167.746094 194.636719 167.699219 C 194.617188 167.617188 194.597656 167.515625 194.589844 167.394531 C 194.59375 167.375 194.597656 167.355469 194.601562 167.332031 C 194.601562 167.328125 194.601562 167.324219 194.601562 167.324219 C 194.617188 167.335938 194.636719 167.347656 194.648438 167.359375 C 194.695312 167.402344 194.746094 167.453125 194.773438 167.515625 Z M 194.140625 165.605469 C 194.15625 165.613281 194.164062 165.621094 194.175781 165.621094 C 194.1875 165.625 194.199219 165.625 194.210938 165.628906 C 194.207031 165.644531 194.203125 165.660156 194.199219 165.671875 C 194.179688 165.648438 194.160156 165.625 194.140625 165.605469 Z M 194.222656 165.253906 C 194.199219 165.226562 194.175781 165.199219 194.144531 165.179688 C 194.070312 165.113281 193.996094 165.078125 193.933594 165.054688 C 193.9375 165 193.941406 164.949219 193.9375 164.898438 C 194.007812 165.039062 194.074219 165.101562 194.074219 165.101562 C 194.074219 165.101562 194.097656 165.035156 194.085938 164.917969 C 194.125 164.972656 194.160156 165.03125 194.1875 165.089844 C 194.210938 165.148438 194.226562 165.203125 194.222656 165.253906 Z M 193.855469 164.363281 C 193.820312 164.316406 193.789062 164.273438 193.75 164.238281 C 193.75 164.199219 193.746094 164.15625 193.730469 164.109375 C 193.789062 164.15625 193.824219 164.21875 193.839844 164.269531 C 193.847656 164.3125 193.855469 164.34375 193.855469 164.363281 Z M 191.535156 162.585938 C 191.5 162.539062 191.449219 162.5 191.394531 162.472656 C 191.472656 162.464844 191.542969 162.453125 191.601562 162.445312 C 191.636719 162.46875 191.671875 162.488281 191.710938 162.507812 C 191.625 162.523438 191.566406 162.558594 191.535156 162.585938 Z M 191.285156 162.210938 C 191.339844 162.273438 191.414062 162.324219 191.488281 162.371094 C 191.5 162.378906 191.515625 162.390625 191.53125 162.398438 C 191.4375 162.390625 191.3125 162.375 191.1875 162.375 C 191.175781 162.371094 191.167969 162.367188 191.164062 162.367188 C 191.199219 162.328125 191.25 162.285156 191.285156 162.210938 Z M 188.578125 162.027344 C 188.644531 162.023438 188.730469 162.039062 188.824219 162.070312 C 188.84375 162.074219 188.859375 162.085938 188.875 162.089844 C 188.808594 162.085938 188.738281 162.089844 188.660156 162.097656 C 188.644531 162.09375 188.632812 162.089844 188.617188 162.078125 C 188.574219 162.066406 188.527344 162.050781 188.476562 162.046875 C 188.480469 162.046875 188.519531 162.027344 188.578125 162.027344 Z M 184.300781 168.664062 Z M 184.285156 168.558594 L 184.28125 168.535156 C 184.296875 168.542969 184.300781 168.550781 184.304688 168.5625 C 184.304688 168.570312 184.304688 168.582031 184.304688 168.589844 C 184.300781 168.59375 184.296875 168.59375 184.296875 168.597656 C 184.296875 168.582031 184.289062 168.566406 184.285156 168.558594 Z M 184.304688 168.550781 C 184.300781 168.542969 184.296875 168.527344 184.285156 168.515625 C 184.28125 168.511719 184.285156 168.503906 184.277344 168.503906 C 184.285156 168.503906 184.296875 168.503906 184.304688 168.511719 C 184.304688 168.519531 184.304688 168.539062 184.304688 168.550781 Z M 184.195312 168.539062 C 184.195312 168.539062 184.199219 168.535156 184.207031 168.527344 C 184.214844 168.519531 184.234375 168.511719 184.257812 168.503906 C 184.257812 168.511719 184.257812 168.511719 184.253906 168.515625 L 184.253906 168.5625 C 184.253906 168.582031 184.253906 168.597656 184.25 168.621094 C 184.230469 168.605469 184.207031 168.582031 184.195312 168.5625 C 184.191406 168.546875 184.195312 168.539062 184.195312 168.539062 Z M 184.300781 168.351562 C 184.28125 168.34375 184.265625 168.34375 184.25 168.34375 C 184.25 168.34375 184.25 168.339844 184.242188 168.339844 C 184.253906 168.320312 184.261719 168.308594 184.273438 168.289062 C 184.28125 168.3125 184.289062 168.332031 184.300781 168.351562 Z M 184.1875 168.832031 C 184.171875 168.785156 184.167969 168.734375 184.167969 168.6875 C 184.1875 168.691406 184.207031 168.691406 184.21875 168.699219 C 184.253906 168.699219 184.277344 168.691406 184.289062 168.6875 C 184.28125 168.726562 184.265625 168.757812 184.25 168.792969 C 184.234375 168.820312 184.214844 168.84375 184.191406 168.867188 C 184.195312 168.851562 184.191406 168.84375 184.1875 168.832031 Z M 185.199219 165.421875 C 185.195312 165.457031 185.191406 165.484375 185.179688 165.511719 C 185.179688 165.511719 185.175781 165.511719 185.175781 165.519531 C 185.117188 165.554688 185.066406 165.617188 185.027344 165.683594 C 185.015625 165.691406 185.003906 165.699219 184.988281 165.710938 C 184.992188 165.6875 185.003906 165.667969 185.007812 165.644531 C 185.015625 165.621094 185.019531 165.601562 185.03125 165.578125 C 185.074219 165.511719 185.132812 165.464844 185.199219 165.421875 Z M 184.261719 168.265625 C 184.25 168.28125 184.238281 168.289062 184.226562 168.304688 C 184.21875 168.296875 184.214844 168.289062 184.214844 168.285156 C 184.234375 168.269531 184.25 168.261719 184.261719 168.257812 C 184.257812 168.257812 184.257812 168.261719 184.261719 168.265625 Z M 184.207031 168.328125 C 184.195312 168.335938 184.1875 168.351562 184.175781 168.359375 C 184.144531 168.371094 184.113281 168.386719 184.089844 168.417969 C 184.121094 168.371094 184.152344 168.332031 184.1875 168.304688 C 184.191406 168.3125 184.199219 168.316406 184.207031 168.328125 Z M 184.039062 168.550781 C 184.046875 168.574219 184.054688 168.597656 184.0625 168.617188 C 184.046875 168.691406 184.039062 168.777344 184.050781 168.855469 C 184.050781 168.867188 184.054688 168.878906 184.054688 168.890625 C 184.035156 168.875 184.015625 168.863281 184.003906 168.84375 C 183.988281 168.824219 183.980469 168.796875 183.96875 168.773438 C 183.976562 168.6875 183.992188 168.605469 184.023438 168.527344 C 184.027344 168.519531 184.03125 168.503906 184.035156 168.496094 C 184.039062 168.515625 184.035156 168.535156 184.039062 168.550781 Z M 184 168.996094 C 183.992188 168.996094 183.988281 169.003906 183.988281 169.003906 C 183.988281 168.996094 183.988281 168.992188 183.984375 168.988281 C 183.988281 168.988281 183.992188 168.992188 184 168.996094 Z M 184.21875 168.925781 C 184.230469 168.921875 184.238281 168.914062 184.25 168.902344 C 184.238281 168.914062 184.234375 168.921875 184.226562 168.933594 C 184.226562 168.933594 184.226562 168.933594 184.21875 168.933594 C 184.21875 168.933594 184.21875 168.933594 184.21875 168.925781 Z M 184.53125 169.972656 C 184.535156 169.988281 184.539062 170.007812 184.539062 170.03125 C 184.53125 170.039062 184.523438 170.042969 184.511719 170.054688 C 184.515625 170.023438 184.527344 169.996094 184.53125 169.972656 Z M 185.847656 164.019531 C 185.894531 163.945312 185.984375 163.902344 186.070312 163.878906 C 186.070312 163.878906 186.066406 163.886719 186.066406 163.886719 C 185.949219 164.039062 185.832031 164.035156 185.792969 164.167969 C 185.796875 164.128906 185.8125 164.074219 185.847656 164.019531 Z M 184.117188 167.890625 C 184.125 167.828125 184.152344 167.765625 184.1875 167.703125 C 184.207031 167.671875 184.226562 167.636719 184.25 167.601562 C 184.25 167.628906 184.253906 167.65625 184.257812 167.683594 C 184.242188 167.726562 184.226562 167.777344 184.214844 167.84375 C 184.183594 168.007812 184.210938 168.132812 184.253906 168.242188 C 184.238281 168.246094 184.21875 168.25 184.199219 168.261719 C 184.171875 168.203125 184.144531 168.144531 184.125 168.074219 C 184.113281 168.011719 184.105469 167.953125 184.117188 167.890625 Z M 184.054688 168.289062 C 184.074219 168.242188 184.09375 168.203125 184.105469 168.179688 C 184.125 168.21875 184.148438 168.246094 184.167969 168.28125 C 184.117188 168.308594 184.054688 168.355469 184.003906 168.425781 C 184.023438 168.375 184.039062 168.328125 184.054688 168.289062 Z M 184.0625 169.226562 C 184.03125 169.175781 184.007812 169.105469 183.992188 169.03125 C 184.007812 169.027344 184.015625 169.027344 184.03125 169.019531 C 184.054688 169.035156 184.082031 169.050781 184.113281 169.058594 C 184.121094 169.078125 184.128906 169.097656 184.140625 169.113281 C 184.128906 169.15625 184.128906 169.199219 184.140625 169.25 C 184.144531 169.273438 184.144531 169.292969 184.148438 169.3125 C 184.117188 169.296875 184.089844 169.269531 184.0625 169.226562 Z M 184.347656 170.0625 C 184.367188 170.058594 184.386719 170.054688 184.402344 170.042969 C 184.402344 170.070312 184.398438 170.09375 184.394531 170.117188 C 184.394531 170.125 184.390625 170.128906 184.390625 170.132812 C 184.335938 170.160156 184.285156 170.179688 184.234375 170.1875 C 184.234375 170.1875 184.234375 170.1875 184.230469 170.1875 C 184.207031 170.164062 184.191406 170.136719 184.183594 170.113281 C 184.175781 170.09375 184.171875 170.085938 184.167969 170.070312 C 184.191406 170.078125 184.257812 170.082031 184.347656 170.0625 Z M 184.539062 170.230469 C 184.484375 170.253906 184.421875 170.265625 184.367188 170.253906 C 184.425781 170.242188 184.488281 170.21875 184.546875 170.183594 C 184.539062 170.203125 184.539062 170.21875 184.539062 170.230469 Z M 184.777344 170.882812 C 184.738281 170.914062 184.699219 170.9375 184.660156 170.953125 C 184.652344 170.953125 184.652344 170.953125 184.648438 170.953125 C 184.667969 170.914062 184.695312 170.878906 184.71875 170.84375 C 184.738281 170.859375 184.757812 170.875 184.777344 170.882812 Z M 184.667969 171.371094 C 184.664062 171.320312 184.648438 171.269531 184.640625 171.214844 C 184.628906 171.15625 184.621094 171.089844 184.625 171.027344 C 184.640625 171.027344 184.652344 171.03125 184.667969 171.027344 C 184.738281 171.023438 184.808594 170.996094 184.875 170.953125 C 184.859375 171 184.847656 171.046875 184.835938 171.097656 C 184.808594 171.136719 184.785156 171.179688 184.765625 171.210938 C 184.722656 171.285156 184.6875 171.34375 184.667969 171.371094 Z M 187.222656 162.648438 C 187.195312 162.636719 187.160156 162.632812 187.125 162.636719 C 187.148438 162.59375 187.183594 162.546875 187.234375 162.515625 C 187.300781 162.46875 187.398438 162.449219 187.480469 162.460938 C 187.539062 162.464844 187.589844 162.484375 187.632812 162.507812 C 187.613281 162.511719 187.589844 162.519531 187.570312 162.519531 C 187.449219 162.535156 187.332031 162.589844 187.222656 162.648438 Z M 187.980469 162.324219 C 187.980469 162.320312 187.984375 162.320312 187.984375 162.3125 C 188.023438 162.261719 188.085938 162.226562 188.15625 162.207031 C 188.199219 162.195312 188.238281 162.1875 188.289062 162.1875 C 188.164062 162.230469 188.066406 162.277344 187.980469 162.324219 Z M 191.765625 162.65625 C 191.769531 162.65625 191.773438 162.65625 191.773438 162.65625 C 191.828125 162.652344 191.882812 162.644531 191.941406 162.632812 C 191.953125 162.644531 191.96875 162.648438 191.984375 162.65625 C 191.90625 162.65625 191.832031 162.660156 191.765625 162.65625 Z M 191.765625 162.65625 " fill-opacity="1" fill-rule="nonzero"/></g><g fill="#000000" fill-opacity="1"><g transform="translate(48.944446, 266.216906)"><g><path d="M 4.140625 -13.984375 L 4.140625 -7.9375 L 12.09375 -7.9375 L 12.09375 -6.53125 L 4.140625 -6.53125 L 4.140625 0 L 2.515625 0 L 2.515625 -15.40625 L 13.0625 -15.40625 L 13.0625 -13.984375 Z M 4.140625 -13.984375 "/></g></g></g><g fill="#000000" fill-opacity="1"><g transform="translate(66.211964, 266.216906)"><g><path d="M 3.671875 -9.3125 C 4.035156 -10.082031 4.582031 -10.664062 5.3125 -11.0625 C 6.039062 -11.457031 6.941406 -11.65625 8.015625 -11.65625 L 8.015625 -10.140625 L 7.640625 -10.15625 C 6.421875 -10.15625 5.460938 -9.78125 4.765625 -9.03125 C 4.078125 -8.289062 3.734375 -7.242188 3.734375 -5.890625 L 3.734375 0 L 2.171875 0 L 2.171875 -11.578125 L 3.671875 -11.578125 Z M 3.671875 -9.3125 "/></g></g></g><g fill="#000000" fill-opacity="1"><g transform="translate(78.37639, 266.216906)"><g><path d="M 12.25 -5.296875 L 2.578125 -5.296875 C 2.660156 -4.097656 3.117188 -3.128906 3.953125 -2.390625 C 4.796875 -1.648438 5.851562 -1.28125 7.125 -1.28125 C 7.84375 -1.28125 8.503906 -1.40625 9.109375 -1.65625 C 9.710938 -1.914062 10.234375 -2.296875 10.671875 -2.796875 L 11.546875 -1.78125 C 11.035156 -1.164062 10.394531 -0.695312 9.625 -0.375 C 8.851562 -0.0507812 8.003906 0.109375 7.078125 0.109375 C 5.890625 0.109375 4.835938 -0.140625 3.921875 -0.640625 C 3.003906 -1.148438 2.289062 -1.851562 1.78125 -2.75 C 1.269531 -3.644531 1.015625 -4.65625 1.015625 -5.78125 C 1.015625 -6.914062 1.257812 -7.925781 1.75 -8.8125 C 2.238281 -9.707031 2.910156 -10.40625 3.765625 -10.90625 C 4.628906 -11.40625 5.597656 -11.65625 6.671875 -11.65625 C 7.734375 -11.65625 8.691406 -11.40625 9.546875 -10.90625 C 10.398438 -10.40625 11.066406 -9.710938 11.546875 -8.828125 C 12.035156 -7.941406 12.28125 -6.925781 12.28125 -5.78125 Z M 6.671875 -10.3125 C 5.554688 -10.3125 4.617188 -9.957031 3.859375 -9.25 C 3.109375 -8.539062 2.679688 -7.613281 2.578125 -6.46875 L 10.78125 -6.46875 C 10.675781 -7.613281 10.242188 -8.539062 9.484375 -9.25 C 8.734375 -9.957031 7.796875 -10.3125 6.671875 -10.3125 Z M 6.671875 -10.3125 "/></g></g></g><g fill="#000000" fill-opacity="1"><g transform="translate(95.006013, 266.216906)"><g><path d="M 12.734375 -16.328125 L 12.734375 0 L 11.234375 0 L 11.234375 -2.28125 C 10.765625 -1.507812 10.144531 -0.914062 9.375 -0.5 C 8.613281 -0.09375 7.75 0.109375 6.78125 0.109375 C 5.6875 0.109375 4.703125 -0.140625 3.828125 -0.640625 C 2.953125 -1.140625 2.265625 -1.832031 1.765625 -2.71875 C 1.265625 -3.613281 1.015625 -4.632812 1.015625 -5.78125 C 1.015625 -6.925781 1.265625 -7.945312 1.765625 -8.84375 C 2.265625 -9.738281 2.953125 -10.429688 3.828125 -10.921875 C 4.703125 -11.410156 5.6875 -11.65625 6.78125 -11.65625 C 7.71875 -11.65625 8.5625 -11.460938 9.3125 -11.078125 C 10.070312 -10.691406 10.691406 -10.125 11.171875 -9.375 L 11.171875 -16.328125 Z M 6.90625 -1.28125 C 7.71875 -1.28125 8.445312 -1.460938 9.09375 -1.828125 C 9.75 -2.203125 10.265625 -2.734375 10.640625 -3.421875 C 11.015625 -4.117188 11.203125 -4.90625 11.203125 -5.78125 C 11.203125 -6.664062 11.015625 -7.453125 10.640625 -8.140625 C 10.265625 -8.828125 9.75 -9.359375 9.09375 -9.734375 C 8.445312 -10.109375 7.71875 -10.296875 6.90625 -10.296875 C 6.082031 -10.296875 5.34375 -10.109375 4.6875 -9.734375 C 4.039062 -9.359375 3.53125 -8.828125 3.15625 -8.140625 C 2.78125 -7.453125 2.59375 -6.664062 2.59375 -5.78125 C 2.59375 -4.90625 2.78125 -4.117188 3.15625 -3.421875 C 3.53125 -2.734375 4.039062 -2.203125 4.6875 -1.828125 C 5.34375 -1.460938 6.082031 -1.28125 6.90625 -1.28125 Z M 6.90625 -1.28125 "/></g></g></g><g fill="#000000" fill-opacity="1"><g transform="translate(113.263355, 266.216906)"><g><path d="M 12.25 -5.296875 L 2.578125 -5.296875 C 2.660156 -4.097656 3.117188 -3.128906 3.953125 -2.390625 C 4.796875 -1.648438 5.851562 -1.28125 7.125 -1.28125 C 7.84375 -1.28125 8.503906 -1.40625 9.109375 -1.65625 C 9.710938 -1.914062 10.234375 -2.296875 10.671875 -2.796875 L 11.546875 -1.78125 C 11.035156 -1.164062 10.394531 -0.695312 9.625 -0.375 C 8.851562 -0.0507812 8.003906 0.109375 7.078125 0.109375 C 5.890625 0.109375 4.835938 -0.140625 3.921875 -0.640625 C 3.003906 -1.148438 2.289062 -1.851562 1.78125 -2.75 C 1.269531 -3.644531 1.015625 -4.65625 1.015625 -5.78125 C 1.015625 -6.914062 1.257812 -7.925781 1.75 -8.8125 C 2.238281 -9.707031 2.910156 -10.40625 3.765625 -10.90625 C 4.628906 -11.40625 5.597656 -11.65625 6.671875 -11.65625 C 7.734375 -11.65625 8.691406 -11.40625 9.546875 -10.90625 C 10.398438 -10.40625 11.066406 -9.710938 11.546875 -8.828125 C 12.035156 -7.941406 12.28125 -6.925781 12.28125 -5.78125 Z M 6.671875 -10.3125 C 5.554688 -10.3125 4.617188 -9.957031 3.859375 -9.25 C 3.109375 -8.539062 2.679688 -7.613281 2.578125 -6.46875 L 10.78125 -6.46875 C 10.675781 -7.613281 10.242188 -8.539062 9.484375 -9.25 C 8.734375 -9.957031 7.796875 -10.3125 6.671875 -10.3125 Z M 6.671875 -10.3125 "/></g></g></g><g fill="#000000" fill-opacity="1"><g transform="translate(129.892981, 266.216906)"><g><path d="M 3.671875 -9.3125 C 4.035156 -10.082031 4.582031 -10.664062 5.3125 -11.0625 C 6.039062 -11.457031 6.941406 -11.65625 8.015625 -11.65625 L 8.015625 -10.140625 L 7.640625 -10.15625 C 6.421875 -10.15625 5.460938 -9.78125 4.765625 -9.03125 C 4.078125 -8.289062 3.734375 -7.242188 3.734375 -5.890625 L 3.734375 0 L 2.171875 0 L 2.171875 -11.578125 L 3.671875 -11.578125 Z M 3.671875 -9.3125 "/></g></g></g><g fill="#000000" fill-opacity="1"><g transform="translate(142.057409, 266.216906)"><g><path d="M 2.171875 -11.578125 L 3.734375 -11.578125 L 3.734375 0 L 2.171875 0 Z M 2.96875 -14.109375 C 2.644531 -14.109375 2.367188 -14.21875 2.140625 -14.4375 C 1.921875 -14.65625 1.8125 -14.914062 1.8125 -15.21875 C 1.8125 -15.507812 1.921875 -15.765625 2.140625 -15.984375 C 2.367188 -16.210938 2.644531 -16.328125 2.96875 -16.328125 C 3.289062 -16.328125 3.5625 -16.21875 3.78125 -16 C 4 -15.789062 4.109375 -15.539062 4.109375 -15.25 C 4.109375 -14.925781 4 -14.65625 3.78125 -14.4375 C 3.5625 -14.21875 3.289062 -14.109375 2.96875 -14.109375 Z M 2.96875 -14.109375 "/></g></g></g><g fill="#000000" fill-opacity="1"><g transform="translate(151.318351, 266.216906)"><g><path d="M 6.46875 -5.8125 L 3.734375 -3.296875 L 3.734375 0 L 2.171875 0 L 2.171875 -16.328125 L 3.734375 -16.328125 L 3.734375 -5.265625 L 10.640625 -11.578125 L 12.578125 -11.578125 L 7.640625 -6.84375 L 13.046875 0 L 11.125 0 Z M 6.46875 -5.8125 "/></g></g></g><g fill="#000000" fill-opacity="1"><g transform="translate(167.88199, 266.216906)"><g><path d="M 5.28125 0.109375 C 4.34375 0.109375 3.441406 -0.0234375 2.578125 -0.296875 C 1.722656 -0.566406 1.054688 -0.90625 0.578125 -1.3125 L 1.28125 -2.546875 C 1.757812 -2.171875 2.363281 -1.859375 3.09375 -1.609375 C 3.832031 -1.367188 4.597656 -1.25 5.390625 -1.25 C 6.441406 -1.25 7.21875 -1.414062 7.71875 -1.75 C 8.226562 -2.082031 8.484375 -2.546875 8.484375 -3.140625 C 8.484375 -3.566406 8.34375 -3.898438 8.0625 -4.140625 C 7.789062 -4.390625 7.441406 -4.578125 7.015625 -4.703125 C 6.585938 -4.828125 6.023438 -4.945312 5.328125 -5.0625 C 4.390625 -5.238281 3.632812 -5.414062 3.0625 -5.59375 C 2.488281 -5.78125 2 -6.09375 1.59375 -6.53125 C 1.1875 -6.96875 0.984375 -7.578125 0.984375 -8.359375 C 0.984375 -9.328125 1.382812 -10.117188 2.1875 -10.734375 C 3 -11.347656 4.125 -11.65625 5.5625 -11.65625 C 6.3125 -11.65625 7.0625 -11.554688 7.8125 -11.359375 C 8.5625 -11.160156 9.175781 -10.898438 9.65625 -10.578125 L 8.96875 -9.328125 C 8.019531 -9.984375 6.882812 -10.3125 5.5625 -10.3125 C 4.5625 -10.3125 3.804688 -10.132812 3.296875 -9.78125 C 2.796875 -9.4375 2.546875 -8.976562 2.546875 -8.40625 C 2.546875 -7.96875 2.6875 -7.613281 2.96875 -7.34375 C 3.257812 -7.082031 3.617188 -6.890625 4.046875 -6.765625 C 4.472656 -6.640625 5.0625 -6.507812 5.8125 -6.375 C 6.726562 -6.195312 7.460938 -6.019531 8.015625 -5.84375 C 8.578125 -5.675781 9.054688 -5.378906 9.453125 -4.953125 C 9.847656 -4.523438 10.046875 -3.9375 10.046875 -3.1875 C 10.046875 -2.175781 9.625 -1.375 8.78125 -0.78125 C 7.945312 -0.1875 6.78125 0.109375 5.28125 0.109375 Z M 5.28125 0.109375 "/></g></g></g><g fill="#000000" fill-opacity="1"><g transform="translate(181.982072, 266.216906)"><g><path d="M 6.90625 0.109375 C 5.789062 0.109375 4.785156 -0.140625 3.890625 -0.640625 C 2.992188 -1.148438 2.289062 -1.851562 1.78125 -2.75 C 1.269531 -3.644531 1.015625 -4.65625 1.015625 -5.78125 C 1.015625 -6.914062 1.269531 -7.925781 1.78125 -8.8125 C 2.289062 -9.707031 2.992188 -10.40625 3.890625 -10.90625 C 4.785156 -11.40625 5.789062 -11.65625 6.90625 -11.65625 C 8.019531 -11.65625 9.023438 -11.40625 9.921875 -10.90625 C 10.816406 -10.40625 11.515625 -9.707031 12.015625 -8.8125 C 12.523438 -7.925781 12.78125 -6.914062 12.78125 -5.78125 C 12.78125 -4.65625 12.523438 -3.644531 12.015625 -2.75 C 11.515625 -1.851562 10.816406 -1.148438 9.921875 -0.640625 C 9.023438 -0.140625 8.019531 0.109375 6.90625 0.109375 Z M 6.90625 -1.28125 C 7.726562 -1.28125 8.460938 -1.460938 9.109375 -1.828125 C 9.765625 -2.203125 10.273438 -2.734375 10.640625 -3.421875 C 11.015625 -4.117188 11.203125 -4.90625 11.203125 -5.78125 C 11.203125 -6.664062 11.015625 -7.453125 10.640625 -8.140625 C 10.273438 -8.828125 9.765625 -9.359375 9.109375 -9.734375 C 8.460938 -10.109375 7.726562 -10.296875 6.90625 -10.296875 C 6.082031 -10.296875 5.34375 -10.109375 4.6875 -9.734375 C 4.039062 -9.359375 3.53125 -8.828125 3.15625 -8.140625 C 2.78125 -7.453125 2.59375 -6.664062 2.59375 -5.78125 C 2.59375 -4.90625 2.78125 -4.117188 3.15625 -3.421875 C 3.53125 -2.734375 4.039062 -2.203125 4.6875 -1.828125 C 5.34375 -1.460938 6.082031 -1.28125 6.90625 -1.28125 Z M 6.90625 -1.28125 "/></g></g></g><g fill="#000000" fill-opacity="1"><g transform="translate(199.117607, 266.216906)"><g><path d="M 12.734375 -16.328125 L 12.734375 0 L 11.234375 0 L 11.234375 -2.28125 C 10.765625 -1.507812 10.144531 -0.914062 9.375 -0.5 C 8.613281 -0.09375 7.75 0.109375 6.78125 0.109375 C 5.6875 0.109375 4.703125 -0.140625 3.828125 -0.640625 C 2.953125 -1.140625 2.265625 -1.832031 1.765625 -2.71875 C 1.265625 -3.613281 1.015625 -4.632812 1.015625 -5.78125 C 1.015625 -6.925781 1.265625 -7.945312 1.765625 -8.84375 C 2.265625 -9.738281 2.953125 -10.429688 3.828125 -10.921875 C 4.703125 -11.410156 5.6875 -11.65625 6.78125 -11.65625 C 7.71875 -11.65625 8.5625 -11.460938 9.3125 -11.078125 C 10.070312 -10.691406 10.691406 -10.125 11.171875 -9.375 L 11.171875 -16.328125 Z M 6.90625 -1.28125 C 7.71875 -1.28125 8.445312 -1.460938 9.09375 -1.828125 C 9.75 -2.203125 10.265625 -2.734375 10.640625 -3.421875 C 11.015625 -4.117188 11.203125 -4.90625 11.203125 -5.78125 C 11.203125 -6.664062 11.015625 -7.453125 10.640625 -8.140625 C 10.265625 -8.828125 9.75 -9.359375 9.09375 -9.734375 C 8.445312 -10.109375 7.71875 -10.296875 6.90625 -10.296875 C 6.082031 -10.296875 5.34375 -10.109375 4.6875 -9.734375 C 4.039062 -9.359375 3.53125 -8.828125 3.15625 -8.140625 C 2.78125 -7.453125 2.59375 -6.664062 2.59375 -5.78125 C 2.59375 -4.90625 2.78125 -4.117188 3.15625 -3.421875 C 3.53125 -2.734375 4.039062 -2.203125 4.6875 -1.828125 C 5.34375 -1.460938 6.082031 -1.28125 6.90625 -1.28125 Z M 6.90625 -1.28125 "/></g></g></g><g fill="#000000" fill-opacity="1"><g transform="translate(217.374949, 266.216906)"><g><path d="M 12.734375 -16.328125 L 12.734375 0 L 11.234375 0 L 11.234375 -2.28125 C 10.765625 -1.507812 10.144531 -0.914062 9.375 -0.5 C 8.613281 -0.09375 7.75 0.109375 6.78125 0.109375 C 5.6875 0.109375 4.703125 -0.140625 3.828125 -0.640625 C 2.953125 -1.140625 2.265625 -1.832031 1.765625 -2.71875 C 1.265625 -3.613281 1.015625 -4.632812 1.015625 -5.78125 C 1.015625 -6.925781 1.265625 -7.945312 1.765625 -8.84375 C 2.265625 -9.738281 2.953125 -10.429688 3.828125 -10.921875 C 4.703125 -11.410156 5.6875 -11.65625 6.78125 -11.65625 C 7.71875 -11.65625 8.5625 -11.460938 9.3125 -11.078125 C 10.070312 -10.691406 10.691406 -10.125 11.171875 -9.375 L 11.171875 -16.328125 Z M 6.90625 -1.28125 C 7.71875 -1.28125 8.445312 -1.460938 9.09375 -1.828125 C 9.75 -2.203125 10.265625 -2.734375 10.640625 -3.421875 C 11.015625 -4.117188 11.203125 -4.90625 11.203125 -5.78125 C 11.203125 -6.664062 11.015625 -7.453125 10.640625 -8.140625 C 10.265625 -8.828125 9.75 -9.359375 9.09375 -9.734375 C 8.445312 -10.109375 7.71875 -10.296875 6.90625 -10.296875 C 6.082031 -10.296875 5.34375 -10.109375 4.6875 -9.734375 C 4.039062 -9.359375 3.53125 -8.828125 3.15625 -8.140625 C 2.78125 -7.453125 2.59375 -6.664062 2.59375 -5.78125 C 2.59375 -4.90625 2.78125 -4.117188 3.15625 -3.421875 C 3.53125 -2.734375 4.039062 -2.203125 4.6875 -1.828125 C 5.34375 -1.460938 6.082031 -1.28125 6.90625 -1.28125 Z M 6.90625 -1.28125 "/></g></g></g><g fill="#000000" fill-opacity="1"><g transform="translate(235.632291, 266.216906)"><g><path d="M 12.25 -5.296875 L 2.578125 -5.296875 C 2.660156 -4.097656 3.117188 -3.128906 3.953125 -2.390625 C 4.796875 -1.648438 5.851562 -1.28125 7.125 -1.28125 C 7.84375 -1.28125 8.503906 -1.40625 9.109375 -1.65625 C 9.710938 -1.914062 10.234375 -2.296875 10.671875 -2.796875 L 11.546875 -1.78125 C 11.035156 -1.164062 10.394531 -0.695312 9.625 -0.375 C 8.851562 -0.0507812 8.003906 0.109375 7.078125 0.109375 C 5.890625 0.109375 4.835938 -0.140625 3.921875 -0.640625 C 3.003906 -1.148438 2.289062 -1.851562 1.78125 -2.75 C 1.269531 -3.644531 1.015625 -4.65625 1.015625 -5.78125 C 1.015625 -6.914062 1.257812 -7.925781 1.75 -8.8125 C 2.238281 -9.707031 2.910156 -10.40625 3.765625 -10.90625 C 4.628906 -11.40625 5.597656 -11.65625 6.671875 -11.65625 C 7.734375 -11.65625 8.691406 -11.40625 9.546875 -10.90625 C 10.398438 -10.40625 11.066406 -9.710938 11.546875 -8.828125 C 12.035156 -7.941406 12.28125 -6.925781 12.28125 -5.78125 Z M 6.671875 -10.3125 C 5.554688 -10.3125 4.617188 -9.957031 3.859375 -9.25 C 3.109375 -8.539062 2.679688 -7.613281 2.578125 -6.46875 L 10.78125 -6.46875 C 10.675781 -7.613281 10.242188 -8.539062 9.484375 -9.25 C 8.734375 -9.957031 7.796875 -10.3125 6.671875 -10.3125 Z M 6.671875 -10.3125 "/></g></g></g><g fill="#000000" fill-opacity="1"><g transform="translate(252.261905, 266.216906)"><g/></g></g><g fill="#000000" fill-opacity="1"><g transform="translate(261.368861, 266.216906)"><g><path d="M 7.28125 -7.234375 L 4.140625 -4.046875 L 4.140625 0 L 2.515625 0 L 2.515625 -15.40625 L 4.140625 -15.40625 L 4.140625 -6.09375 L 13.171875 -15.40625 L 15.046875 -15.40625 L 8.375 -8.421875 L 15.515625 0 L 13.578125 0 Z M 7.28125 -7.234375 "/></g></g></g><g fill="#000000" fill-opacity="1"><g transform="translate(280.352068, 266.216906)"><g><path d="M 6.90625 0.109375 C 5.789062 0.109375 4.785156 -0.140625 3.890625 -0.640625 C 2.992188 -1.148438 2.289062 -1.851562 1.78125 -2.75 C 1.269531 -3.644531 1.015625 -4.65625 1.015625 -5.78125 C 1.015625 -6.914062 1.269531 -7.925781 1.78125 -8.8125 C 2.289062 -9.707031 2.992188 -10.40625 3.890625 -10.90625 C 4.785156 -11.40625 5.789062 -11.65625 6.90625 -11.65625 C 8.019531 -11.65625 9.023438 -11.40625 9.921875 -10.90625 C 10.816406 -10.40625 11.515625 -9.707031 12.015625 -8.8125 C 12.523438 -7.925781 12.78125 -6.914062 12.78125 -5.78125 C 12.78125 -4.65625 12.523438 -3.644531 12.015625 -2.75 C 11.515625 -1.851562 10.816406 -1.148438 9.921875 -0.640625 C 9.023438 -0.140625 8.019531 0.109375 6.90625 0.109375 Z M 6.90625 -1.28125 C 7.726562 -1.28125 8.460938 -1.460938 9.109375 -1.828125 C 9.765625 -2.203125 10.273438 -2.734375 10.640625 -3.421875 C 11.015625 -4.117188 11.203125 -4.90625 11.203125 -5.78125 C 11.203125 -6.664062 11.015625 -7.453125 10.640625 -8.140625 C 10.273438 -8.828125 9.765625 -9.359375 9.109375 -9.734375 C 8.460938 -10.109375 7.726562 -10.296875 6.90625 -10.296875 C 6.082031 -10.296875 5.34375 -10.109375 4.6875 -9.734375 C 4.039062 -9.359375 3.53125 -8.828125 3.15625 -8.140625 C 2.78125 -7.453125 2.59375 -6.664062 2.59375 -5.78125 C 2.59375 -4.90625 2.78125 -4.117188 3.15625 -3.421875 C 3.53125 -2.734375 4.039062 -2.203125 4.6875 -1.828125 C 5.34375 -1.460938 6.082031 -1.28125 6.90625 -1.28125 Z M 6.90625 -1.28125 "/></g></g></g><g fill="#000000" fill-opacity="1"><g transform="translate(297.487603, 266.216906)"><g><path d="M 3.671875 -9.3125 C 4.035156 -10.082031 4.582031 -10.664062 5.3125 -11.0625 C 6.039062 -11.457031 6.941406 -11.65625 8.015625 -11.65625 L 8.015625 -10.140625 L 7.640625 -10.15625 C 6.421875 -10.15625 5.460938 -9.78125 4.765625 -9.03125 C 4.078125 -8.289062 3.734375 -7.242188 3.734375 -5.890625 L 3.734375 0 L 2.171875 0 L 2.171875 -11.578125 L 3.671875 -11.578125 Z M 3.671875 -9.3125 "/></g></g></g><g fill="#000000" fill-opacity="1"><g transform="translate(309.652031, 266.216906)"><g><path d="M 12.25 -5.296875 L 2.578125 -5.296875 C 2.660156 -4.097656 3.117188 -3.128906 3.953125 -2.390625 C 4.796875 -1.648438 5.851562 -1.28125 7.125 -1.28125 C 7.84375 -1.28125 8.503906 -1.40625 9.109375 -1.65625 C 9.710938 -1.914062 10.234375 -2.296875 10.671875 -2.796875 L 11.546875 -1.78125 C 11.035156 -1.164062 10.394531 -0.695312 9.625 -0.375 C 8.851562 -0.0507812 8.003906 0.109375 7.078125 0.109375 C 5.890625 0.109375 4.835938 -0.140625 3.921875 -0.640625 C 3.003906 -1.148438 2.289062 -1.851562 1.78125 -2.75 C 1.269531 -3.644531 1.015625 -4.65625 1.015625 -5.78125 C 1.015625 -6.914062 1.257812 -7.925781 1.75 -8.8125 C 2.238281 -9.707031 2.910156 -10.40625 3.765625 -10.90625 C 4.628906 -11.40625 5.597656 -11.65625 6.671875 -11.65625 C 7.734375 -11.65625 8.691406 -11.40625 9.546875 -10.90625 C 10.398438 -10.40625 11.066406 -9.710938 11.546875 -8.828125 C 12.035156 -7.941406 12.28125 -6.925781 12.28125 -5.78125 Z M 6.671875 -10.3125 C 5.554688 -10.3125 4.617188 -9.957031 3.859375 -9.25 C 3.109375 -8.539062 2.679688 -7.613281 2.578125 -6.46875 L 10.78125 -6.46875 C 10.675781 -7.613281 10.242188 -8.539062 9.484375 -9.25 C 8.734375 -9.957031 7.796875 -10.3125 6.671875 -10.3125 Z M 6.671875 -10.3125 "/></g></g></g><g fill="#000000" fill-opacity="1"><g transform="translate(326.281646, 266.216906)"><g><path d="M 8.265625 -0.703125 C 7.972656 -0.441406 7.609375 -0.238281 7.171875 -0.09375 C 6.742188 0.0390625 6.296875 0.109375 5.828125 0.109375 C 4.742188 0.109375 3.90625 -0.179688 3.3125 -0.765625 C 2.726562 -1.359375 2.4375 -2.1875 2.4375 -3.25 L 2.4375 -10.25 L 0.375 -10.25 L 0.375 -11.578125 L 2.4375 -11.578125 L 2.4375 -14.109375 L 4 -14.109375 L 4 -11.578125 L 7.53125 -11.578125 L 7.53125 -10.25 L 4 -10.25 L 4 -3.34375 C 4 -2.65625 4.171875 -2.128906 4.515625 -1.765625 C 4.859375 -1.410156 5.351562 -1.234375 6 -1.234375 C 6.320312 -1.234375 6.632812 -1.285156 6.9375 -1.390625 C 7.238281 -1.492188 7.5 -1.640625 7.71875 -1.828125 Z M 8.265625 -0.703125 "/></g></g></g></svg>